<?xml version="1.0" encoding="utf-8"?>
<!-- Generator: Adobe Illustrator 21.1.0, SVG Export Plug-In . SVG Version: 6.00 Build 0)  -->
<svg version="1.1" id="agenda" xmlns="http://www.w3.org/2000/svg" xmlns:xlink="http://www.w3.org/1999/xlink" x="0px" y="0px"
	 viewBox="0 0 400 400" style="enable-background:new 0 0 400 400;" xml:space="preserve">
<style type="text/css">
	.st0{fill:none;stroke:#FFFFFF;stroke-width:8.1666;stroke-linecap:round;stroke-linejoin:round;stroke-miterlimit:10;}
</style>
<g>
	<line class="st0" x1="32" y1="190.1" x2="32" y2="88.5"/>
	<line class="st0" x1="32" y1="326.5" x2="32" y2="218.3"/>
	<path class="st0" d="M32,356.4v19.5c0,9.5,7.7,17.2,17.2,17.2h329.5c9.5,0,17.2-7.7,17.2-17.2V37.2c0-9.5-7.7-17.2-17.2-17.2H49.1
		C39.6,20,32,27.7,32,37.2v20"/>
	<path class="st0" d="M74.6,87.3H10.1c-3.5,0-6.3-2.8-6.3-6.3V67.2c0-3.5,2.8-6.3,6.3-6.3h64.5c3.5,0,6.3,2.8,6.3,6.3V81
		C80.9,84.5,78.1,87.3,74.6,87.3z"/>
	<path class="st0" d="M74.6,219.7H10.1c-3.5,0-6.3-2.8-6.3-6.3v-13.9c0-3.5,2.8-6.3,6.3-6.3h64.5c3.5,0,6.3,2.8,6.3,6.3v13.9
		C80.9,216.9,78.1,219.7,74.6,219.7z"/>
	<path class="st0" d="M74.6,354.4H10.1c-3.5,0-6.3-2.8-6.3-6.3v-13.9c0-3.5,2.8-6.3,6.3-6.3h64.5c3.5,0,6.3,2.8,6.3,6.3v13.9
		C80.9,351.6,78.1,354.4,74.6,354.4z"/>
	<line class="st0" x1="106.8" y1="20" x2="106.8" y2="393"/>
	<g>
		<circle class="st0" cx="241.9" cy="155.7" r="45.6"/>
		<path class="st0" d="M303.5,302.9H181.8c-7.1,0-12.8-5.7-12.8-12.8v0c0-40.7,33-73.7,73.7-73.7h0c40.7,0,73.7,33,73.7,73.7v0
			C316.3,297.2,310.6,302.9,303.5,302.9z"/>
	</g>
</g>
</svg>
