<?xml version="1.0" encoding="utf-8"?>
<!-- Generator: Adobe Illustrator 21.1.0, SVG Export Plug-In . SVG Version: 6.00 Build 0)  -->
<svg version="1.1" id="bandejaentrada1" xmlns="http://www.w3.org/2000/svg" xmlns:xlink="http://www.w3.org/1999/xlink" x="0px"
	 y="0px" viewBox="0 0 600 400" style="enable-background:new 0 0 600 400;" xml:space="preserve">
<style type="text/css">
	.st0{fill:none;stroke:#FFFFFF;stroke-width:8;stroke-linecap:round;stroke-linejoin:round;stroke-miterlimit:10;}
</style>
<path class="st0" d="M400.5,312.8c0,23,0,44.9,0,66.8c0,2,0.4,4-0.1,5.9c-0.6,2.3-1.5,5.9-3,6.4c-2.1,0.6-5.5-0.6-7.2-2.2
	c-25.4-23.5-50.6-47.1-75.7-71c-4.4-4.2-8.7-6.1-14.9-6c-50.1,0.3-100.3,0.2-150.4,0.1c-28.4-0.1-50.6-17.1-56.7-43.5
	c-1.3-5.5-1.7-11.3-1.7-16.9c-0.1-61.5-0.1-123-0.1-184.5c0-35.6,24.1-59.8,59.8-59.8C250.1,8,349.7,8,449.3,8.1
	c35,0,59.4,23.5,59.7,58.7c0.5,62.8,0.4,125.6,0,188.5c-0.2,33.8-24.7,57.4-58.6,57.6C434,312.9,417.7,312.8,400.5,312.8z"/>
</svg>
