<?xml version="1.0" encoding="utf-8"?>
<!-- Generator: Adobe Illustrator 21.1.0, SVG Export Plug-In . SVG Version: 6.00 Build 0)  -->
<svg version="1.1" xmlns="http://www.w3.org/2000/svg" xmlns:xlink="http://www.w3.org/1999/xlink" x="0px" y="0px"
	 viewBox="0 0 407 403" style="enable-background:new 0 0 407 403;" xml:space="preserve">
<style type="text/css">
	.st0{fill:#FFFFFF;}
	.st1{fill:none;stroke:#00597C;stroke-miterlimit:10;}
	.st2{fill:#0C232C;}
	.st3{fill:none;stroke:#00597C;stroke-width:8;stroke-linecap:round;stroke-linejoin:round;stroke-miterlimit:10;}
	.st4{fill:#4B8598;}
	.st5{fill:#16597A;}
	.st6{fill:#1A82C2;}
</style>
<g id="crearproyecto_copia">
	<g id="Capa_5_copia">
		<circle class="st0" cx="203.5" cy="201.5" r="198.5"/>
		<title>proyecto2</title>
		<path class="st1" d="M178.4,125.1"/>
		<path class="st1" d="M235.9,125.1"/>
	</g>
	<path class="st2" d="M210.2,205.7c0-0.1-0.1-0.1-0.1-0.1c0,0,0-0.1,0-0.1h0l0-0.1l-4.8-6.7l-4.9,6.7l0,0.1h0c0,0,0,0,0,0.1
		c0,0-0.1,0.1-0.1,0.1c-1.5,2-1.5,4.6-0.3,6.7l0.1,0.1c0,0,0,0,0,0.1c0.3,0.4,0.6,0.7,1,1.1l0,0c1,0.9,2.2,1.5,3.4,1.7
		c0.3,0,0.5,0.1,0.8,0.1c0.3,0,0.5,0,0.8-0.1c1.3-0.2,2.5-0.8,3.4-1.7l0,0c0.3-0.3,0.7-0.7,1-1.1c0,0,0,0,0-0.1l0.1-0.1
		C211.7,210.4,211.7,207.8,210.2,205.7z"/>
	<g>
		<path class="st3" d="M246.6,89.2H123.9c-2,0-3.6,1.6-3.6,3.6v217.4c0,2,1.6,3.6,3.6,3.6h159.3c2,0,3.6-1.6,3.6-3.6v-181
			c0-1-0.4-1.9-1.1-2.5l-36.5-36.4C248.5,89.6,247.6,89.2,246.6,89.2z"/>
		<path class="st3" d="M247.1,90.2v34.9c0,2,1.6,3.6,3.6,3.6h35.1"/>
		<path class="st4" d="M180,190l0-18.9c0-1.5-0.6-2.9-1.6-4c-0.3-0.3-0.5-0.5-0.8-0.8c-0.3-0.3-0.7-0.5-1-0.7
			c-0.3-0.2-0.7-0.3-1-0.4c-0.4-0.1-0.8-0.2-1.2-0.3c-0.4,0-0.7,0-1.1,0c-0.4,0.1-0.8,0.1-1.2,0.3c-0.4,0.1-0.7,0.3-1.1,0.5
			c-0.4,0.2-0.7,0.4-1,0.7c-0.3,0.3-0.5,0.6-0.8,0.9c-0.3,0.3-0.5,0.6-0.7,1c-0.2,0.3-0.3,0.7-0.4,1c-0.1,0.4-0.2,0.8-0.3,1.2
			c0,0.2-0.1,0.3-0.1,0.5l0.1,60.8c0,3.4,2.8,6.1,6.2,6.1c3.4,0,6.1-2.8,6.1-6.2L180,190z"/>
		<path class="st5" d="M198.5,208.2c0.1-0.1,0.1-0.1,0.1-0.1c0,0,0-0.1,0-0.1h0l0-0.1l4.9-6.7l-24.7-33.9c-0.1-0.1-0.3-0.2-0.4-0.4
			c0.9,1.1,1.6,2.4,1.6,4l0,18.9l17.5,24l0.7,0.9C197,212.9,197,210.3,198.5,208.2z"/>
		<path class="st2" d="M178.5,167.1c-0.3-0.3-0.5-0.5-0.8-0.8c-0.3-0.3-0.7-0.5-1-0.7c-0.3-0.2-0.7-0.3-1-0.4
			c-0.4-0.1-0.8-0.2-1.2-0.3c-0.4,0-0.7,0-1.1,0c-0.4,0.1-0.8,0.1-1.2,0.3c-0.4,0.1-0.7,0.3-1.1,0.5c-0.4,0.2-0.7,0.4-1,0.7
			c-0.3,0.3-0.5,0.6-0.8,0.9c-0.3,0.3-0.5,0.6-0.7,1c-0.2,0.3-0.3,0.7-0.4,1c-0.1,0.4-0.2,0.8-0.3,1.2c-0.1,1.4,0.2,2.8,1.1,4.1
			L180,190l0-18.9C180,169.5,179.4,168.2,178.5,167.1z"/>
		<path class="st4" d="M239.2,170.6c0-0.4-0.1-0.8-0.3-1.2c-0.1-0.4-0.2-0.7-0.4-1c-0.2-0.4-0.4-0.7-0.7-1c-0.2-0.3-0.5-0.6-0.8-0.9
			c-0.3-0.3-0.7-0.5-1-0.7c-0.4-0.2-0.7-0.4-1.1-0.5c-0.4-0.1-0.8-0.2-1.2-0.3c-0.4,0-0.7-0.1-1.1,0c-0.4,0-0.8,0.1-1.2,0.3
			c-0.4,0.1-0.7,0.2-1,0.4c-0.4,0.2-0.7,0.4-1,0.7c-0.3,0.2-0.6,0.5-0.9,0.8c-0.9,1.1-1.5,2.4-1.5,3.9l0,18.9l-0.1,41.9
			c0,3.4,2.7,6.1,6.1,6.2c3.4,0,6.1-2.7,6.1-6.1l0.1-60.8C239.3,170.9,239.2,170.8,239.2,170.6z"/>
		<path class="st6" d="M228.5,167.1c-0.1,0.1-0.3,0.2-0.4,0.3l-24.7,33.9l4.8,6.7l0,0.1h0c0,0,0,0,0,0.1c0,0,0.1,0.1,0.1,0.1
			c1.5,2,1.5,4.6,0.3,6.7l0.7-0.9l17.5-24l0-18.9C227,169.5,227.6,168.2,228.5,167.1z"/>
		<path class="st2" d="M208.5,208.2c0-0.1-0.1-0.1-0.1-0.1c0,0,0-0.1,0-0.1h0l0-0.1l-4.8-6.7l-4.9,6.7l0,0.1h0c0,0,0,0,0,0.1
			c0,0-0.1,0.1-0.1,0.1c-1.5,2-1.5,4.6-0.3,6.7l0.1,0.1c0,0,0,0,0,0.1c0.3,0.4,0.6,0.7,1,1.1l0,0c1,0.9,2.2,1.5,3.4,1.7
			c0.3,0,0.5,0.1,0.8,0.1c0.3,0,0.5,0,0.8-0.1c1.3-0.2,2.5-0.8,3.4-1.7l0,0c0.3-0.3,0.7-0.7,1-1.1c0,0,0,0,0-0.1l0.1-0.1
			C210,212.9,210,210.3,208.5,208.2z"/>
		<path class="st2" d="M239.2,170.6c0-0.4-0.1-0.8-0.3-1.2c-0.1-0.4-0.2-0.7-0.4-1c-0.2-0.4-0.4-0.7-0.7-1c-0.2-0.3-0.5-0.6-0.8-0.9
			c-0.3-0.3-0.7-0.5-1-0.7c-0.4-0.2-0.7-0.4-1.1-0.5c-0.4-0.1-0.8-0.2-1.2-0.3c-0.4,0-0.7-0.1-1.1,0c-0.4,0-0.8,0.1-1.2,0.3
			c-0.4,0.1-0.7,0.2-1,0.4c-0.4,0.2-0.7,0.4-1,0.7c-0.3,0.2-0.6,0.5-0.9,0.8c-0.9,1.1-1.5,2.4-1.5,3.9l0,18.9l11.1-15.3
			C239,173.4,239.3,172,239.2,170.6z"/>
	</g>
</g>
<g id="Capa_6">
	<g>
		<circle class="st3" cx="202.7" cy="198.8" r="72.8"/>
		<line class="st3" x1="264.8" y1="236.8" x2="335.1" y2="279"/>
	</g>
</g>
</svg>
