<?xml version="1.0" encoding="utf-8"?>
<!-- Generator: Adobe Illustrator 21.1.0, SVG Export Plug-In . SVG Version: 6.00 Build 0)  -->
<svg version="1.1" id="camara" xmlns="http://www.w3.org/2000/svg" xmlns:xlink="http://www.w3.org/1999/xlink" x="0px" y="0px"
	 viewBox="0 0 600 400" style="enable-background:new 0 0 600 400;" xml:space="preserve">
<style type="text/css">
	.st0{fill:none;stroke:#FFFFFF;stroke-width:11.1928;stroke-linecap:round;stroke-linejoin:round;stroke-miterlimit:10;}
</style>
<g>
	<path class="st0" d="M562,391H58c-6.2,0-11.2-5-11.2-11.2V78.1c0-6.2,5-11.2,11.2-11.2H562c6.2,0,11.2,5,11.2,11.2v301.8
		C573.2,386,568.2,391,562,391z"/>
	<g>
		<circle class="st0" cx="310" cy="229" r="125.2"/>
		<circle class="st0" cx="310" cy="229" r="85.9"/>
	</g>
</g>
<path class="st0" d="M526.3,66.4h-53.5c-4.5,0-8.1-3.6-8.1-8.1V40.2c0-4.5,3.6-8.1,8.1-8.1h53.5c4.5,0,8.1,3.6,8.1,8.1v18.2
	C534.4,62.8,530.8,66.4,526.3,66.4z"/>
<path class="st0" d="M392,65.9H228c-2.9,0-4.7-3.3-3-5.7l34.3-50.6c0.7-1,1.8-1.6,3-1.6h95.3c1.2,0,2.4,0.6,3,1.6L395,60.2
	C396.6,62.6,394.9,65.9,392,65.9z"/>
</svg>
