<?xml version="1.0" encoding="utf-8"?>
<!-- Generator: Adobe Illustrator 21.1.0, SVG Export Plug-In . SVG Version: 6.00 Build 0)  -->
<svg version="1.1" id="equipos" xmlns="http://www.w3.org/2000/svg" xmlns:xlink="http://www.w3.org/1999/xlink" x="0px" y="0px"
	 viewBox="0 0 400 400" style="enable-background:new 0 0 400 400;" xml:space="preserve">
<style type="text/css">
	.st0{fill:none;stroke:#FFFFFF;stroke-width:8.1666;stroke-linecap:round;stroke-linejoin:round;stroke-miterlimit:10;}
</style>
<g>
	<circle class="st0" cx="200.7" cy="191.4" r="53"/>
	<path class="st0" d="M272.3,362.6H130.7c-8.2,0-14.9-6.7-14.9-14.9v0c0-47.3,38.4-85.7,85.7-85.7h0c47.3,0,85.7,38.4,85.7,85.7v0
		C287.2,356,280.6,362.6,272.3,362.6z"/>
</g>
<circle class="st0" cx="323.8" cy="197.4" r="44.2"/>
<path class="st0" d="M324.5,256.4L324.5,256.4c-18.4,0-35.1,6.9-47.8,18.3c19.5,15.3,32.2,39,32.8,65.6h74c6.9,0,12.4-5.6,12.4-12.4
	v0C396,288.4,364,256.4,324.5,256.4z"/>
<circle class="st0" cx="76.2" cy="197.4" r="44.2"/>
<path class="st0" d="M75.5,256.4L75.5,256.4c18.4,0,35.1,6.9,47.8,18.3c-19.5,15.3-32.2,39-32.8,65.6h-74c-6.9,0-12.4-5.6-12.4-12.4
	v0C4,288.4,36,256.4,75.5,256.4z"/>
</svg>
