<?xml version="1.0" encoding="utf-8"?>
<!-- Generator: Adobe Illustrator 21.1.0, SVG Export Plug-In . SVG Version: 6.00 Build 0)  -->
<svg version="1.1" id="Capa_4" xmlns="http://www.w3.org/2000/svg" xmlns:xlink="http://www.w3.org/1999/xlink" x="0px" y="0px"
	 viewBox="0 0 407 403" style="enable-background:new 0 0 407 403;" xml:space="preserve">
<style type="text/css">
	.st0{fill:#FFFFFF;}
	.st1{fill:none;stroke:#00597C;stroke-width:8;stroke-linecap:round;stroke-linejoin:round;stroke-miterlimit:10;}
	.st2{fill:#4B8598;}
	.st3{fill:#16597A;}
	.st4{fill:#0C232C;}
	.st5{fill:#1A82C2;}
</style>
<circle class="st0" cx="203.5" cy="201.5" r="198.5"/>
<path class="st1" d="M238,125H126.5c-21.3,0-38.5,17.2-38.5,38.5v0c0,21.3,17.2,38.5,38.5,38.5h148c21.3,0,38.5,17.2,38.5,38.5v5
	c0,21.3-17.2,38.5-38.5,38.5H170"/>
<path class="st1" d="M141,237.2H89.8c-0.8,0-1.5,0.7-1.5,1.5v90.8c0,0.8,0.7,1.5,1.5,1.5h66.5c0.8,0,1.5-0.7,1.5-1.5v-75.6
	c0-0.4-0.2-0.8-0.4-1.1l-15.3-15.2C141.8,237.4,141.4,237.2,141,237.2z"/>
<path class="st1" d="M139.2,239.6v14.6c0,0.8,0.7,1.5,1.5,1.5h14.6"/>
<path class="st2" d="M113.2,279.3l0-7.9c0-0.6-0.3-1.2-0.7-1.7c-0.1-0.1-0.2-0.2-0.3-0.3c-0.1-0.1-0.3-0.2-0.4-0.3
	c-0.1-0.1-0.3-0.1-0.4-0.2c-0.2-0.1-0.3-0.1-0.5-0.1c-0.2,0-0.3,0-0.5,0c-0.2,0-0.3,0.1-0.5,0.1c-0.2,0-0.3,0.1-0.5,0.2
	c-0.1,0.1-0.3,0.2-0.4,0.3c-0.1,0.1-0.2,0.2-0.3,0.4c-0.1,0.1-0.2,0.3-0.3,0.4c-0.1,0.1-0.1,0.3-0.2,0.4c-0.1,0.2-0.1,0.3-0.1,0.5
	c0,0.1,0,0.1,0,0.2l0,25.4c0,1.4,1.2,2.6,2.6,2.6c1.4,0,2.6-1.1,2.6-2.6L113.2,279.3z"/>
<path class="st3" d="M120.9,286.9C121,286.9,121,286.9,120.9,286.9C121,286.9,121,286.9,120.9,286.9L120.9,286.9L120.9,286.9
	l2.1-2.9l-10.3-14.2c0-0.1-0.1-0.1-0.2-0.1c0.4,0.5,0.7,1,0.7,1.7l0,7.9l7.3,10l0.3,0.4C120.3,288.9,120.3,287.8,120.9,286.9z"/>
<path class="st4" d="M112.6,269.7c-0.1-0.1-0.2-0.2-0.3-0.3c-0.1-0.1-0.3-0.2-0.4-0.3c-0.1-0.1-0.3-0.1-0.4-0.2
	c-0.2-0.1-0.3-0.1-0.5-0.1c-0.2,0-0.3,0-0.5,0c-0.2,0-0.3,0.1-0.5,0.1c-0.2,0-0.3,0.1-0.5,0.2c-0.1,0.1-0.3,0.2-0.4,0.3
	c-0.1,0.1-0.2,0.2-0.3,0.4c-0.1,0.1-0.2,0.3-0.3,0.4c-0.1,0.1-0.1,0.3-0.2,0.4c-0.1,0.2-0.1,0.3-0.1,0.5c0,0.6,0.1,1.2,0.5,1.7
	l4.6,6.4l0-7.9C113.2,270.8,113,270.2,112.6,269.7z"/>
<path class="st2" d="M137.9,271.2c0-0.2-0.1-0.3-0.1-0.5c0-0.1-0.1-0.3-0.2-0.4c-0.1-0.1-0.2-0.3-0.3-0.4c-0.1-0.1-0.2-0.3-0.3-0.4
	c-0.1-0.1-0.3-0.2-0.4-0.3c-0.1-0.1-0.3-0.2-0.5-0.2c-0.2-0.1-0.3-0.1-0.5-0.1c-0.2,0-0.3,0-0.5,0c-0.2,0-0.4,0.1-0.5,0.1
	c-0.1,0-0.3,0.1-0.4,0.2c-0.2,0.1-0.3,0.2-0.4,0.3c-0.1,0.1-0.3,0.2-0.4,0.3c-0.4,0.4-0.6,1-0.6,1.6l0,7.9l0,17.5
	c0,1.4,1.1,2.6,2.6,2.6c1.4,0,2.6-1.1,2.6-2.6l0-25.4C138,271.3,137.9,271.3,137.9,271.2z"/>
<path class="st5" d="M133.5,269.8c0,0.1-0.1,0.1-0.2,0.1L123,284l2,2.8l0,0h0c0,0,0,0,0,0c0,0,0,0,0.1,0c0.6,0.8,0.6,1.9,0.1,2.8
	l0.3-0.4l7.3-10l0-7.9C132.8,270.8,133.1,270.2,133.5,269.8z"/>
<path class="st4" d="M125.1,286.9C125.1,286.9,125.1,286.9,125.1,286.9C125.1,286.9,125,286.9,125.1,286.9L125.1,286.9L125.1,286.9
	L123,284l-2,2.8l0,0h0c0,0,0,0,0,0c0,0,0,0-0.1,0c-0.6,0.8-0.6,1.9-0.1,2.8l0,0c0,0,0,0,0,0c0.1,0.2,0.3,0.3,0.4,0.4l0,0
	c0.4,0.4,0.9,0.6,1.4,0.7c0.1,0,0.2,0,0.3,0c0.1,0,0.2,0,0.3,0c0.5-0.1,1-0.3,1.4-0.7l0,0c0.1-0.1,0.3-0.3,0.4-0.4c0,0,0,0,0,0l0,0
	C125.7,288.9,125.7,287.8,125.1,286.9z"/>
<path class="st4" d="M137.9,271.2c0-0.2-0.1-0.3-0.1-0.5c0-0.1-0.1-0.3-0.2-0.4c-0.1-0.1-0.2-0.3-0.3-0.4c-0.1-0.1-0.2-0.3-0.3-0.4
	c-0.1-0.1-0.3-0.2-0.4-0.3c-0.1-0.1-0.3-0.2-0.5-0.2c-0.2-0.1-0.3-0.1-0.5-0.1c-0.2,0-0.3,0-0.5,0c-0.2,0-0.4,0.1-0.5,0.1
	c-0.1,0-0.3,0.1-0.4,0.2c-0.2,0.1-0.3,0.2-0.4,0.3c-0.1,0.1-0.3,0.2-0.4,0.3c-0.4,0.4-0.6,1-0.6,1.6l0,7.9l4.6-6.4
	C137.8,272.4,138,271.8,137.9,271.2z"/>
<polygon class="st1" points="319,90.1 265.5,68.2 265.5,112 "/>
<line class="st1" x1="265" y1="69" x2="265" y2="149"/>
<line class="st1" x1="252" y1="149" x2="278" y2="149"/>
</svg>
