<?xml version="1.0" encoding="utf-8"?>
<!-- Generator: Adobe Illustrator 21.1.0, SVG Export Plug-In . SVG Version: 6.00 Build 0)  -->
<svg version="1.1" id="proyectos" xmlns="http://www.w3.org/2000/svg" xmlns:xlink="http://www.w3.org/1999/xlink" x="0px" y="0px"
	 viewBox="0 0 600 400" style="enable-background:new 0 0 600 400;" xml:space="preserve">
<style type="text/css">
	.st0{fill:#FFFFFF;}
	.st1{fill:#4B8598;}
	.st2{fill:#16597A;}
	.st3{fill:#0C232C;}
	.st4{fill:#1A82C2;}
</style>
<circle class="st0" cx="307.2" cy="200" r="200"/>
<g>
	<path class="st1" d="M235.2,164.6l-0.1-58c0-4.7-1.9-8.8-4.8-12.2c-0.8-0.9-1.6-1.7-2.5-2.4c-1-0.8-2-1.5-3.1-2.1
		c-1-0.5-2.1-0.8-3.2-1.2c-1.2-0.4-2.5-0.7-3.8-0.8c-1.2-0.1-2.3,0-3.4,0.1c-1.3,0.2-2.5,0.4-3.7,0.8c-1.2,0.3-2.3,0.9-3.3,1.5
		c-1.1,0.6-2.1,1.2-3,2c-0.9,0.8-1.7,1.7-2.4,2.7c-0.8,1-1.5,2-2.1,3c-0.5,1-0.8,2.1-1.1,3.2c-0.4,1.2-0.7,2.5-0.8,3.8
		c0,0.5-0.3,0.9-0.3,1.5l0.2,186.6c0,10.4,8.5,18.8,18.9,18.8c10.4,0,18.8-8.5,18.8-18.9L235.2,164.6z"/>
	<path class="st2" d="M291.9,220.7c0.2-0.2,0.3-0.2,0.4-0.3c0-0.1,0.1-0.2,0.1-0.2h0l-0.1-0.2l14.9-20.4L231.6,95.4
		c-0.3-0.4-0.8-0.7-1.2-1.1c2.9,3.3,4.8,7.4,4.8,12.2l0.1,58l53.7,73.8l2.1,2.8C287.3,234.9,287.4,226.9,291.9,220.7z"/>
	<path class="st3" d="M230.4,94.4c-0.8-0.9-1.6-1.7-2.5-2.4c-1-0.8-2-1.5-3.1-2.1c-1-0.5-2.1-0.8-3.2-1.2c-1.2-0.4-2.5-0.7-3.8-0.8
		c-1.2-0.1-2.3,0-3.4,0.1c-1.3,0.2-2.5,0.4-3.7,0.8c-1.2,0.3-2.3,0.9-3.3,1.5c-1.1,0.6-2.1,1.2-3,2c-0.9,0.8-1.7,1.7-2.4,2.7
		c-0.8,1-1.5,2-2.1,3c-0.5,1-0.8,2.1-1.1,3.2c-0.4,1.2-0.7,2.5-0.8,3.8c-0.3,4.3,0.6,8.7,3.3,12.5l34.1,46.9l-0.1-58
		C235.1,101.8,233.3,97.7,230.4,94.4z"/>
	<path class="st3" d="M322.5,220.7c-0.1-0.2-0.3-0.2-0.4-0.3c0-0.1-0.1-0.2-0.1-0.2H322l0.1-0.2l-14.9-20.4L292.3,220l0.1,0.2h0
		c0,0-0.1,0.1-0.1,0.2c-0.1,0.1-0.2,0.2-0.4,0.3c-4.5,6.2-4.6,14.2-0.9,20.5l0.2,0.3c0,0,0.1,0.1,0.1,0.2c0.8,1.2,1.9,2.2,3,3.2
		l0.1-0.1c3,2.9,6.7,4.6,10.5,5.2c0.8,0,1.6,0.2,2.4,0.2c0.8,0,1.5-0.1,2.3-0.2c3.9-0.6,7.6-2.3,10.6-5.2l0.1,0.1c1-1,2.2-2,3-3.2
		c0,0,0-0.1,0.1-0.2l0.3-0.3C327.1,234.9,327.1,226.9,322.5,220.7z"/>
	<path class="st1" d="M416.7,105.1c-0.1-1.3-0.4-2.5-0.8-3.8c-0.3-1.1-0.7-2.2-1.2-3.2c-0.6-1.1-1.3-2.1-2.1-3
		c-0.7-0.9-1.5-1.9-2.4-2.7c-1-0.8-2-1.4-3-2c-1.1-0.6-2.2-1.2-3.4-1.5c-1.2-0.4-2.4-0.6-3.7-0.8c-1.2-0.1-2.3-0.2-3.5-0.1
		c-1.3,0.1-2.6,0.4-3.8,0.8c-1.1,0.3-2.2,0.7-3.2,1.2c-1.1,0.6-2.1,1.3-3,2c-1,0.7-1.9,1.5-2.7,2.5c-2.8,3.3-4.7,7.4-4.7,12.1l0,58
		l-0.2,128.6c-0.1,10.5,8.3,18.9,18.8,18.9c10.4,0,18.9-8.4,18.9-18.8l0.3-186.6C417,106.1,416.7,105.6,416.7,105.1z"/>
	<path class="st4" d="M384,94.4c-0.3,0.4-0.8,0.6-1.1,1l-75.7,104.1l14.9,20.4l-0.1,0.2h0.1c0,0,0,0.1,0.1,0.2
		c0.1,0.1,0.3,0.2,0.4,0.3c4.5,6.2,4.6,14.2,1,20.5l2-2.8l53.7-73.8l0-58C379.3,101.9,381.2,97.7,384,94.4z"/>
	<path class="st3" d="M322.5,220.7c-0.1-0.2-0.3-0.2-0.4-0.3c0-0.1-0.1-0.2-0.1-0.2H322l0.1-0.2l-14.9-20.4L292.3,220l0.1,0.2h0
		c0,0-0.1,0.1-0.1,0.2c-0.1,0.1-0.2,0.2-0.4,0.3c-4.5,6.2-4.6,14.2-0.9,20.5l0.2,0.3c0,0,0.1,0.1,0.1,0.2c0.8,1.2,1.9,2.2,3,3.2
		l0.1-0.1c3,2.9,6.7,4.6,10.5,5.2c0.8,0,1.6,0.2,2.4,0.2c0.8,0,1.5-0.1,2.3-0.2c3.9-0.6,7.6-2.3,10.6-5.2l0.1,0.1c1-1,2.2-2,3-3.2
		c0,0,0-0.1,0.1-0.2l0.3-0.3C327.1,234.9,327.1,226.9,322.5,220.7z"/>
	<path class="st3" d="M416.7,105.1c-0.1-1.3-0.4-2.5-0.8-3.8c-0.3-1.1-0.7-2.2-1.2-3.2c-0.6-1.1-1.3-2.1-2.1-3
		c-0.7-0.9-1.5-1.9-2.4-2.7c-1-0.8-2-1.4-3-2c-1.1-0.6-2.2-1.2-3.4-1.5c-1.2-0.4-2.4-0.6-3.7-0.8c-1.2-0.1-2.3-0.2-3.5-0.1
		c-1.3,0.1-2.6,0.4-3.8,0.8c-1.1,0.3-2.2,0.7-3.2,1.2c-1.1,0.6-2.1,1.3-3,2c-1,0.7-1.9,1.5-2.7,2.5c-2.8,3.3-4.7,7.4-4.7,12.1l0,58
		l34.1-46.9C416.1,113.9,417,109.4,416.7,105.1z"/>
</g>
</svg>
