<?xml version="1.0" encoding="utf-8"?>
<!-- Generator: Adobe Illustrator 22.0.0, SVG Export Plug-In . SVG Version: 6.00 Build 0)  -->
<svg version="1.1" id="Capa_1" xmlns="http://www.w3.org/2000/svg" xmlns:xlink="http://www.w3.org/1999/xlink" x="0px" y="0px"
	 viewBox="0 0 402 400" style="enable-background:new 0 0 402 400;" xml:space="preserve">
<style type="text/css">
	.st0{fill:none;stroke:#FFFFFF;stroke-width:8;stroke-linecap:round;stroke-linejoin:round;stroke-miterlimit:10;}
</style>
<ellipse class="st0" cx="200" cy="200" rx="195.5" ry="196.5"/>
<path class="st0" d="M182.3,249c-29.6,5.6-52,31.6-52,62.8v20.5h127.9v-20.5c0-30.7-21.6-56.4-50.5-62.5"/>
<path class="st0" d="M136.5,209.8"/>
<path class="st0" d="M253.8,116.8"/>
<path class="st0" d="M253.8,116.8v62.5c0,32.4-26.3,58.7-58.7,58.7l0,0l0,0c-32.4,0-58.7-26.3-58.7-58.7v-34.2"/>
<path class="st0" d="M131.3,162.8c-4,0-7.3,3.3-7.3,7.3s3.3,7.3,7.3,7.3"/>
<path class="st0" d="M167,67.6c-13.1,0-23.8,10.6-23.8,23.8v0.9h-6.1c-6.7,0-12.1,5.4-12.1,12.1v36.3c0,2.1,1.7,3.8,3.8,3.8h10.7
	c2.1,0,3.8-1.7,3.8-3.8v-13.5c0-5.7,4.6-10.3,10.3-10.3h96.8c13.1,0,23.8-10.6,23.8-23.8V67.6H167z"/>
<path class="st0" d="M207.4,237.5V261c0,5.5-4.4,9.9-9.9,9.9h-4.7c-5.5,0-9.9-4.4-9.9-9.9v-23.6"/>
<path class="st0" d="M258,162.8c4,0,7.3,3.3,7.3,7.3s-3.3,7.3-7.3,7.3"/>
</svg>
