<?xml version="1.0" encoding="utf-8"?>
<!-- Generator: Adobe Illustrator 21.1.0, SVG Export Plug-In . SVG Version: 6.00 Build 0)  -->
<svg version="1.1" id="agenda" xmlns="http://www.w3.org/2000/svg" xmlns:xlink="http://www.w3.org/1999/xlink" x="0px" y="0px"
	 viewBox="0 0 600 400" style="enable-background:new 0 0 600 400;" xml:space="preserve">
<style type="text/css">
	.st0{fill:none;stroke:#FFFFFF;stroke-width:8;stroke-miterlimit:10;}
</style>
<line class="st0" x1="105.2" y1="140.5" x2="105.2" y2="78.3"/>
<line class="st0" x1="105.2" y1="233.9" x2="105.2" y2="169.9"/>
<line class="st0" x1="105.2" y1="325.8" x2="105.2" y2="263.3"/>
<path class="st0" d="M105.2,356.9v20.3c0,9.9,8,17.8,17.8,17.8h342.7c9.9,0,17.8-8,17.8-17.8V24.8c0-9.9-8-17.8-17.8-17.8H123.1
	c-9.9,0-17.8,8-17.8,17.8v18.8"/>
<path class="st0" d="M149.5,77.1H82.4c-3.6,0-6.6-2.9-6.6-6.6V56.1c0-3.6,2.9-6.6,6.6-6.6h67.1c3.6,0,6.6,2.9,6.6,6.6v14.4
	C156.1,74.1,153.2,77.1,149.5,77.1z"/>
<path class="st0" d="M149.5,169.3H82.4c-3.6,0-6.6-2.9-6.6-6.6v-14.4c0-3.6,2.9-6.6,6.6-6.6h67.1c3.6,0,6.6,2.9,6.6,6.6v14.4
	C156.1,166.3,153.2,169.3,149.5,169.3z"/>
<path class="st0" d="M149.5,262.7H82.4c-3.6,0-6.6-2.9-6.6-6.6v-14.4c0-3.6,2.9-6.6,6.6-6.6h67.1c3.6,0,6.6,2.9,6.6,6.6v14.4
	C156.1,259.7,153.2,262.7,149.5,262.7z"/>
<path class="st0" d="M149.5,354.9H82.4c-3.6,0-6.6-2.9-6.6-6.6v-14.4c0-3.6,2.9-6.6,6.6-6.6h67.1c3.6,0,6.6,2.9,6.6,6.6v14.4
	C156.1,351.9,153.2,354.9,149.5,354.9z"/>
<line class="st0" x1="183" y1="7" x2="183" y2="395"/>
<g>
	<circle class="st0" cx="323.6" cy="148.1" r="47.4"/>
	<path class="st0" d="M387.7,301.3H261c-7.4,0-13.3-6-13.3-13.3v0c0-42.3,34.3-76.7,76.7-76.7h0c42.3,0,76.7,34.3,76.7,76.7v0
		C401,295.3,395,301.3,387.7,301.3z"/>
</g>
</svg>
