<?xml version="1.0" encoding="utf-8"?>
<!-- Generator: Adobe Illustrator 21.1.0, SVG Export Plug-In . SVG Version: 6.00 Build 0)  -->
<svg version="1.1" id="bandejadeentrada2" xmlns="http://www.w3.org/2000/svg" xmlns:xlink="http://www.w3.org/1999/xlink" x="0px"
	 y="0px" viewBox="0 0 600 400" style="enable-background:new 0 0 600 400;" xml:space="preserve">
<style type="text/css">
	.st0{fill:none;stroke:#FFFFFF;stroke-width:8;stroke-linecap:round;stroke-linejoin:round;stroke-miterlimit:10;}
</style>
<g>
	<path class="st0" d="M4.8,136v142c0,19.9,16.1,36,36,36H557c19.9,0,36-16.1,36-36V136h-93.8v13.5c0,15.4-12.5,27.8-27.8,27.8H124.8
		c-15.4,0-27.8-12.5-27.8-27.8V136H4.8z"/>
	<path class="st0" d="M197.9,262.4v-14.6c0-9.5,7.7-17.2,17.2-17.2h167.5c9.5,0,17.2,7.7,17.2,17.2v14.6"/>
	<line class="st0" x1="561.2" y1="172.5" x2="593" y2="172.5"/>
	<line class="st0" x1="561.2" y1="213.9" x2="593" y2="213.9"/>
	<line class="st0" x1="561.2" y1="256.8" x2="593" y2="256.8"/>
	<line class="st0" x1="6.4" y1="172.5" x2="38.2" y2="172.5"/>
	<line class="st0" x1="6.4" y1="213.9" x2="38.2" y2="213.9"/>
	<line class="st0" x1="6.4" y1="256.8" x2="38.2" y2="256.8"/>
</g>
</svg>
