<?xml version="1.0" encoding="utf-8"?>
<!-- Generator: Adobe Illustrator 21.1.0, SVG Export Plug-In . SVG Version: 6.00 Build 0)  -->
<svg version="1.1" xmlns="http://www.w3.org/2000/svg" xmlns:xlink="http://www.w3.org/1999/xlink" x="0px" y="0px"
	 viewBox="0 0 1140 640" style="enable-background:new 0 0 1140 640;" xml:space="preserve">
<style type="text/css">
	.st0{fill:#4B8598;}
	.st1{fill:#16597A;}
	.st2{fill:#0C232C;}
	.st3{fill:#1A82C2;}
	.st4{fill:#D91C4C;}
</style>
<g id="m1">
	<path class="st0" d="M49.3,292.4l-0.1-43.5c0-3.5-1.4-6.6-3.6-9.1c-0.6-0.7-1.2-1.2-1.9-1.8c-0.8-0.6-1.5-1.1-2.3-1.6
		c-0.8-0.4-1.6-0.6-2.4-0.9c-0.9-0.3-1.9-0.5-2.9-0.6c-0.9-0.1-1.7,0-2.6,0.1c-1,0.1-1.9,0.3-2.8,0.6c-0.9,0.3-1.7,0.7-2.5,1.2
		c-0.8,0.4-1.6,0.9-2.3,1.5c-0.7,0.6-1.2,1.3-1.8,2c-0.6,0.7-1.1,1.5-1.6,2.3c-0.3,0.8-0.6,1.6-0.8,2.4c-0.3,0.9-0.5,1.9-0.6,2.8
		c0,0.4-0.2,0.7-0.2,1.1l0.2,140c0,7.8,6.4,14.1,14.2,14.1c7.8,0,14.1-6.3,14.1-14.2L49.3,292.4z"/>
</g>
<g id="m2">
	<path class="st1" d="M91.8,334.5c0.1-0.1,0.2-0.2,0.3-0.3c0-0.1,0.1-0.1,0.1-0.2h0l-0.1-0.1l11.2-15.3l-56.8-78.1
		c-0.2-0.3-0.6-0.5-0.9-0.8c2.2,2.5,3.6,5.6,3.6,9.1l0.1,43.5l40.3,55.4l1.6,2.1C88.4,345.2,88.4,339.2,91.8,334.5z"/>
	<path class="st2" d="M45.7,239.7c-0.6-0.7-1.2-1.2-1.9-1.8c-0.8-0.6-1.5-1.1-2.3-1.6c-0.8-0.4-1.6-0.6-2.4-0.9
		c-0.9-0.3-1.9-0.5-2.9-0.6c-0.9-0.1-1.7,0-2.6,0.1c-1,0.1-1.9,0.3-2.8,0.6c-0.9,0.3-1.7,0.7-2.5,1.2c-0.8,0.4-1.6,0.9-2.3,1.5
		c-0.7,0.6-1.2,1.3-1.8,2c-0.6,0.7-1.1,1.5-1.6,2.3c-0.3,0.8-0.6,1.6-0.8,2.4c-0.3,0.9-0.5,1.9-0.6,2.8c-0.2,3.2,0.4,6.5,2.5,9.4
		l25.6,35.2l-0.1-43.5C49.2,245.3,47.8,242.2,45.7,239.7z"/>
	<path class="st2" d="M114.8,334.5c-0.1-0.1-0.2-0.2-0.3-0.3c0-0.1-0.1-0.1-0.1-0.2h-0.1l0.1-0.1l-11.1-15.3l-11.2,15.3l0.1,0.1h0
		c0,0-0.1,0.1-0.1,0.2c-0.1,0.1-0.2,0.1-0.3,0.3c-3.4,4.7-3.4,10.7-0.7,15.4l0.1,0.3c0,0,0.1,0.1,0.1,0.1c0.6,0.9,1.4,1.7,2.2,2.4
		l0.1-0.1c2.2,2.2,5,3.4,7.9,3.9c0.6,0,1.2,0.1,1.8,0.1c0.6,0,1.2-0.1,1.7-0.1c2.9-0.5,5.7-1.7,7.9-3.9l0.1,0.1
		c0.8-0.8,1.6-1.5,2.2-2.4c0,0,0-0.1,0.1-0.1l0.2-0.3C118.2,345.2,118.2,339.2,114.8,334.5z"/>
</g>
<g id="m3_1_">
	<path class="st0" d="M185.4,247.8c-0.1-1-0.3-1.9-0.6-2.8c-0.3-0.8-0.5-1.6-0.9-2.4c-0.4-0.8-1-1.6-1.6-2.3c-0.5-0.7-1.1-1.4-1.8-2
		c-0.7-0.6-1.5-1.1-2.3-1.5c-0.8-0.5-1.6-0.9-2.5-1.2c-0.9-0.3-1.8-0.5-2.8-0.6c-0.9-0.1-1.7-0.1-2.6-0.1c-1,0.1-1.9,0.3-2.8,0.6
		c-0.8,0.2-1.6,0.5-2.4,0.9c-0.8,0.4-1.6,1-2.3,1.5c-0.7,0.5-1.4,1.2-2,1.9c-2.1,2.5-3.6,5.6-3.6,9.1l0,43.5l-0.1,96.4
		c-0.1,7.8,6.3,14.2,14.1,14.2c7.8,0,14.2-6.3,14.2-14.1l0.2-140C185.6,248.5,185.4,248.2,185.4,247.8z"/>
</g>
<g id="m4">
	<path class="st3" d="M160.9,239.8c-0.3,0.3-0.6,0.4-0.8,0.8l-56.8,78.1l11.1,15.3l-0.1,0.1h0.1c0,0,0,0.1,0.1,0.2
		c0.1,0.1,0.2,0.1,0.3,0.3c3.4,4.7,3.4,10.7,0.8,15.4l1.5-2.1l40.3-55.4l0-43.5C157.4,245.4,158.8,242.3,160.9,239.8z"/>
	<path class="st2" d="M114.8,334.5c-0.1-0.1-0.2-0.2-0.3-0.3c0-0.1-0.1-0.1-0.1-0.2h-0.1l0.1-0.1l-11.1-15.3l-11.2,15.3l0.1,0.1h0
		c0,0-0.1,0.1-0.1,0.2c-0.1,0.1-0.2,0.1-0.3,0.3c-3.4,4.7-3.4,10.7-0.7,15.4l0.1,0.3c0,0,0.1,0.1,0.1,0.1c0.6,0.9,1.4,1.7,2.2,2.4
		l0.1-0.1c2.2,2.2,5,3.4,7.9,3.9c0.6,0,1.2,0.1,1.8,0.1c0.6,0,1.2-0.1,1.7-0.1c2.9-0.5,5.7-1.7,7.9-3.9l0.1,0.1
		c0.8-0.8,1.6-1.5,2.2-2.4c0,0,0-0.1,0.1-0.1l0.2-0.3C118.2,345.2,118.2,339.2,114.8,334.5z"/>
	<path class="st2" d="M185.4,247.8c-0.1-1-0.3-1.9-0.6-2.8c-0.3-0.8-0.5-1.6-0.9-2.4c-0.4-0.8-1-1.6-1.6-2.3c-0.5-0.7-1.1-1.4-1.8-2
		c-0.7-0.6-1.5-1.1-2.3-1.5c-0.8-0.5-1.6-0.9-2.5-1.2c-0.9-0.3-1.8-0.5-2.8-0.6c-0.9-0.1-1.7-0.1-2.6-0.1c-1,0.1-1.9,0.3-2.8,0.6
		c-0.8,0.2-1.6,0.5-2.4,0.9c-0.8,0.4-1.6,1-2.3,1.5c-0.7,0.5-1.4,1.2-2,1.9c-2.1,2.5-3.6,5.6-3.6,9.1l0,43.5l25.6-35.2
		C185,254.4,185.7,251,185.4,247.8z"/>
</g>
<g id="e1_x5F_1_1_">
	<path class="st0" d="M217.4,236c-1.9,0-3.8,0.4-5.4,1.1c-5.1,2.1-8.6,7.1-8.6,12.9v70v69.2c0,5.8,3.5,10.8,8.6,12.9
		c1.6,0.7,3.5,1.1,5.4,1.1c7.8,0,14-6.3,14-14v-14v-41.1V306v-41.9v-14C231.5,242.3,225.2,236,217.4,236z"/>
</g>
<g id="e1_x5F_2">
	<path class="st3" d="M231.5,250.1v14h79.4V264c7.5-0.3,13.5-6.4,13.5-13.9c0-7.8-6.3-14-14-14h-92.9
		C225.2,236,231.5,242.3,231.5,250.1z"/>
	<path class="st2" d="M217.4,264.1h14v-14c0-7.8-6.3-14.1-14-14.1c-1.9,0-3.8,0.4-5.4,1.1c-5.1,2.1-8.6,7.1-8.6,12.9
		C203.4,257.8,209.7,264.1,217.4,264.1z"/>
</g>
<g id="e1_x5F_3">
	<path class="st1" d="M295.9,334.1c7.7,0,14-6.3,14-14c0-7.8-6.3-14-14-14h-64.4v28.1H295.9z"/>
	<path class="st2" d="M217.4,334.1h14V306h-14c-7.7,0-14,6.3-14,14C203.4,327.8,209.7,334.1,217.4,334.1z"/>
</g>
<g id="e1_x5F_4">
	<path class="st3" d="M310.3,375.2h-78.9v14c0,7.7-6.3,14-14,14h93.4v-0.1c7.5-0.3,13.5-6.4,13.5-13.9
		C324.3,381.5,318.1,375.2,310.3,375.2z"/>
	<path class="st2" d="M231.5,389.3v-14h-14c-7.7,0-14,6.3-14,14c0,5.8,3.5,10.8,8.6,12.9c1.6,0.7,3.5,1.1,5.4,1.1
		C225.2,403.3,231.5,397,231.5,389.3z"/>
</g>
<g id="e2_x5F_1">
	<path class="st3" d="M455.2,235.8c-1.7-0.7-3.5-1.1-5.5-1.1c-7.7,0-14,6.3-14,14.1v14v41.1V332v41.9v14c0,7.7,6.3,14,14,14
		c1.9,0,3.8-0.4,5.5-1.1c5-2.1,8.6-7.1,8.6-12.9v-70v-69.2C463.7,242.9,460.2,237.9,455.2,235.8z"/>
</g>
<g id="e2_x5F_2">
	<path class="st1" d="M449.7,234.7h-93.4v0.1c-7.5,0.3-13.5,6.4-13.5,13.9c0,7.7,6.3,14,14,14h78.9v-14
		C435.7,241,442,234.7,449.7,234.7z"/>
	<path class="st2" d="M463.7,248.8c0-5.8-3.5-10.8-8.6-12.9c-1.7-0.7-3.5-1.1-5.5-1.1c-7.7,0-14,6.3-14,14.1v14h14
		C457.4,262.8,463.7,256.5,463.7,248.8z"/>
</g>
<g id="e2_x5F_3">
	<path class="st0" d="M371.3,303.9c-7.8,0-14,6.3-14,14c0,7.7,6.3,14,14,14h64.4v-28.1H371.3z"/>
	<path class="st2" d="M449.7,303.9h-14V332h14c7.8,0,14-6.3,14-14C463.7,310.2,457.4,303.9,449.7,303.9z"/>
</g>
<g id="e2_x5F_4">
	<path class="st4" d="M455.2,400.8c5-2.1,8.6-7.1,8.6-12.9l0,0C463.7,393.7,460.2,398.7,455.2,400.8z"/>
	<path class="st1" d="M435.7,387.9v-14h-79.4v0.1c-7.5,0.3-13.5,6.4-13.5,13.9c0,7.7,6.3,14,14,14h92.9
		C442,401.9,435.7,395.6,435.7,387.9z"/>
	<path class="st2" d="M449.7,373.9h-14v14c0,7.7,6.3,14,14,14c1.9,0,3.8-0.4,5.5-1.1c5-2.1,8.6-7.1,8.6-12.9
		C463.7,380.2,457.4,373.9,449.7,373.9z"/>
</g>
<g id="t1">
	<path class="st1" d="M552.6,235.6c-7.8,0-14,6.3-14,14.1v14v55.5v69.6c0,7.7,6.3,14,14,14c7.8,0,14-6.3,14-14v-55.5v-28.1v-41.5
		v-14C566.6,241.9,560.3,235.6,552.6,235.6z"/>
</g>
<g id="t2">
	<path class="st0" d="M552.6,235.6h-45.7h-14c-7.8,0-14,6.3-14,14.1c0,7.7,6.3,14,14,14h14h31.7v-14
		C538.5,241.9,544.8,235.6,552.6,235.6z"/>
	<path class="st0" d="M612.3,235.6h-14h-45.7c7.8,0,14,6.3,14,14.1v14h31.7h13.3v-0.2c0.3,0,0.5,0.2,0.8,0.2c7.8,0,14-6.3,14-14
		C626.3,241.9,620.1,235.6,612.3,235.6z"/>
	<path class="st2" d="M552.6,235.6c-7.8,0-14,6.3-14,14.1v14h28.1v-14C566.6,241.9,560.3,235.6,552.6,235.6z"/>
</g>
<g id="h1">
	<path class="st3" d="M655.9,235c-7.8,0-14,6.3-14,14.1v139.1c0,7.7,6.3,14,14,14c7.8,0,14-6.3,14-14V249
		C670,241.3,663.7,235,655.9,235z"/>
</g>
<g id="h2">
	<path class="st0" d="M775.4,235c-7.8,0-14,6.3-14,14.1v55.5v28.1v55.5c0,7.7,6.3,14,14,14c7.8,0,14-6.3,14-14v-69.6V249
		C789.4,241.3,783.2,235,775.4,235z"/>
</g>
<g id="h3">
	<rect x="670" y="304.5" class="st1" width="91.4" height="28.1"/>
	<path class="st2" d="M655.9,304.5c-7.8,0-14,6.3-14,14.1c0,7.7,6.3,14,14,14h14v-28.1H655.9z"/>
	<path class="st2" d="M775.4,304.5h-14v28.1h13.3v-0.2c0.3,0,0.5,0.2,0.8,0.2c7.8,0,14-6.3,14-14
		C789.4,310.8,783.2,304.5,775.4,304.5z"/>
</g>
<g id="i">
	<path class="st1" d="M818.3,235c-7.8,0-14,6.3-14,14.1v139.1c0,7.7,6.3,14,14,14c7.7,0,14-6.3,14-14V249
		C832.3,241.3,826,235,818.3,235z"/>
</g>
<g id="n1">
	<path class="st3" d="M875.1,239.2c-0.7-0.8-1.5-1.3-2.3-1.9c-0.7-0.5-1.4-1-2.1-1.4c-0.8-0.3-1.6-0.5-2.4-0.7
		c-0.9-0.3-1.9-0.5-2.9-0.6c-0.9,0-1.7,0.1-2.6,0.3c-0.9,0.1-1.9,0.2-2.7,0.5c-1,0.3-1.9,0.9-2.8,1.5c-0.6,0.4-1.3,0.8-1.9,1.3
		c-0.8,0.7-1.3,1.5-1.9,2.3c-0.5,0.7-1,1.3-1.4,2.1c-0.4,0.7-0.5,1.5-0.7,2.3c-0.3,1-0.6,2-0.6,3c0,0.2-0.1,0.4-0.1,0.6v139.1
		c0,7.7,6.3,14,14,14c7.8,0,14-6.3,14-14V287.5v-38.9C878.8,245,877.4,241.7,875.1,239.2z"/>
</g>
<g id="n2">
	<path class="st0" d="M966.3,348.9l-64-77.2c0,0-0.1-0.1-0.1-0.1l-26.5-32c-0.1-0.2-0.3-0.2-0.5-0.4c2.3,2.5,3.7,5.7,3.7,9.4v38.9
		l64,77.2c0.1,0.1,0.1,0.1,0.2,0.1l26.5,32c0.2,0.2,0.5,0.3,0.7,0.5c-2.3-2.5-3.8-5.8-3.8-9.5V348.9z"/>
	<path class="st2" d="M875.1,239.2c-0.7-0.8-1.5-1.3-2.3-1.9c-0.7-0.5-1.4-1-2.1-1.4c-0.8-0.3-1.6-0.5-2.4-0.7
		c-0.9-0.3-1.9-0.5-2.9-0.6c-0.9,0-1.7,0.1-2.6,0.3c-0.9,0.1-1.9,0.2-2.7,0.5c-1,0.3-1.9,0.9-2.8,1.5c-0.6,0.4-1.3,0.8-1.9,1.3
		c-0.8,0.7-1.3,1.5-1.9,2.3c-0.5,0.7-1,1.3-1.4,2.1c-0.4,0.7-0.5,1.5-0.7,2.3c-0.3,1-0.6,2-0.6,3c-0.1,3.4,0.8,6.8,3.2,9.6l24.8,30
		v-38.9C878.8,245,877.4,241.7,875.1,239.2z"/>
	<path class="st2" d="M966.3,348.9v38.8c0,3.7,1.5,7,3.8,9.5c0.5,0.5,1.1,0.9,1.7,1.3c0.8,0.7,1.7,1.4,2.7,1.8
		c0.6,0.3,1.3,0.4,1.9,0.6c1.1,0.3,2.2,0.6,3.3,0.7c0.8,0,1.5-0.1,2.2-0.2c1.1-0.1,2.1-0.3,3.1-0.6c0.9-0.3,1.7-0.8,2.5-1.3
		c0.7-0.5,1.4-0.8,2.1-1.4c0.8-0.8,1.5-1.7,2.1-2.6c0.3-0.5,0.8-1.1,1.1-1.7c0.5-1,0.7-2.1,0.9-3.1c0.1-0.7,0.4-1.4,0.4-2.1
		c0.2-3.4-0.8-6.9-3.1-9.8L966.3,348.9z"/>
</g>
<g id="n3">
	<path class="st1" d="M994.3,248.6c0-7.8-6.3-14.1-14-14.1c-7.7,0-14,6.3-14,14.1v100.3l24.8,29.9c2.3,2.8,3.3,6.4,3.1,9.8
		c0-0.3,0.2-0.5,0.2-0.8V248.6z"/>
	<path class="st2" d="M966.3,348.9v38.8c0,3.7,1.5,7,3.8,9.5c0.5,0.5,1.1,0.9,1.7,1.3c0.8,0.7,1.7,1.4,2.7,1.8
		c0.6,0.3,1.3,0.4,1.9,0.6c1.1,0.3,2.2,0.6,3.3,0.7c0.8,0,1.5-0.1,2.2-0.2c1.1-0.1,2.1-0.3,3.1-0.6c0.9-0.3,1.7-0.8,2.5-1.3
		c0.7-0.5,1.4-0.8,2.1-1.4c0.8-0.8,1.5-1.7,2.1-2.6c0.3-0.5,0.8-1.1,1.1-1.7c0.5-1,0.7-2.1,0.9-3.1c0.1-0.7,0.4-1.4,0.4-2.1
		c0.2-3.4-0.8-6.9-3.1-9.8L966.3,348.9z"/>
</g>
<g id="k1">
	<path class="st3" d="M1023.2,233.8c-7.7,0-14,6.3-14,14V387c0,7.8,6.3,14,14,14c7.8,0,14-6.3,14-14V247.8
		C1037.2,240.1,1030.9,233.8,1023.2,233.8z"/>
</g>
<g id="k2">
	<path class="st0" d="M1012.3,326.3L1012.3,326.3c-4.6-6.1-3.4-14.8,2.7-19.4l93.5-70.6c6.1-4.6,14.8-3.4,19.4,2.7v0
		c4.6,6.1,3.4,14.8-2.7,19.4l-93.5,70.6C1025.6,333.6,1016.9,332.4,1012.3,326.3z"/>
	<path class="st2" d="M1031.8,307.2l5.5,4.1v-1.1v-20.3l-19.9,15.1l-2.3,1.8c-1.6,1.2-2.8,2.6-3.7,4.2c0,0-0.1,0.1-0.1,0.1
		c-0.8,1.4-1.2,2.9-1.5,4.4c0,0.2,0,0.4-0.1,0.6c0.3-2.2,1.2-4.3,2.6-6.2C1016.9,303.8,1025.6,302.6,1031.8,307.2z"/>
</g>
<g id="k3">
	<path class="st1" d="M1009.7,316.4c0-0.1,0-0.2,0-0.3C1009.7,316.2,1009.7,316.3,1009.7,316.4z"/>
	<path class="st2" d="M1009.6,316.8c0-0.1,0-0.2,0-0.3C1009.6,316.5,1009.6,316.6,1009.6,316.8z"/>
	<path class="st1" d="M1125.3,377.8l-79.1-59.8l-8.9,6.8v0.6v20.3l-19.9-15.2l-0.9-0.7c-1.5-0.9-2.9-2.1-4-3.6
		c-1.6-2.2-2.5-4.7-2.7-7.2c0.2,3.9,2.1,7.7,5.4,10.2l93.5,70.6c6.1,4.6,14.8,3.4,19.4-2.7v0
		C1132.6,391.2,1131.4,382.5,1125.3,377.8z"/>
	<polygon class="st1" points="1037.2,324.8 1046.2,318.1 1037.2,311.3 	"/>
	<path class="st2" d="M1009.8,320.1c0.3,1.6,0.7,3.1,1.5,4.4c0,0.1,0.1,0.1,0.1,0.1c0.9,1.6,2.1,3,3.7,4.2l2.3,1.7l19.9,15.2v-20.3
		v-14.1l-5.5-4.1c-6.1-4.6-14.8-3.4-19.4,2.7c-1.4,1.9-2.3,4-2.6,6.2c0,0.1,0,0.2,0,0.3c0,0.1,0,0.2,0,0.3c0,0.4,0,0.7,0,1.1
		C1009.6,318.6,1009.6,319.4,1009.8,320.1z"/>
</g>
</svg>
