<?xml version="1.0" encoding="utf-8"?>
<!-- Generator: Adobe Illustrator 21.1.0, SVG Export Plug-In . SVG Version: 6.00 Build 0)  -->
<svg version="1.1" id="proyectos" xmlns="http://www.w3.org/2000/svg" xmlns:xlink="http://www.w3.org/1999/xlink" x="0px" y="0px"
	 viewBox="0 0 600 400" style="enable-background:new 0 0 600 400;" xml:space="preserve">
<style type="text/css">
	.st0{fill:#4B8598;}
	.st1{fill:none;stroke:#FFFFFF;stroke-width:7.3496;stroke-linecap:round;stroke-linejoin:round;stroke-miterlimit:10;}
</style>
<circle class="st0" cx="307.2" cy="200" r="200"/>
<g>
	<path class="st1" d="M350.4,87.7H227.6c-2,0-3.6,1.6-3.6,3.6v217.4c0,2,1.6,3.6,3.6,3.6h159.3c2,0,3.6-1.6,3.6-3.6v-181
		c0-1-0.4-1.9-1.1-2.5l-36.5-36.4C352.2,88.1,351.3,87.7,350.4,87.7z M337.9,126.1c-19.1,0-38.2,0-57.5,0
		C299.8,126.1,318.9,126.1,337.9,126.1z M367.1,157.1c-38.5,0-77,0-115.6,0C290.1,157.1,328.5,157.1,367.1,157.1z M367,195.8
		c-38.4,0-76.9,0-115.6,0 M311.3,267.6c-1.4,1.6-3.8,1.7-5.3,0.1c-3.3-3.4-6.4-6.7-9.4-9.8c3,3.1,6.1,6.4,9.4,9.8
		C307.4,269.2,309.9,269.2,311.3,267.6c6.9-8,13.5-15.6,20.2-23.3C324.8,252,318.2,259.6,311.3,267.6z M367.1,215.2
		c-38.5,0-77,0-115.6,0"/>
	<path class="st1" d="M367.1,176.5c-38.5,0-77,0-115.6,0"/>
	<path class="st1" d="M280.4,126.1"/>
	<path class="st1" d="M337.9,126.1"/>
	<path class="st1" d="M308.7,270.6c7.9-9.1,15.3-17.6,22.8-26.3"/>
	<path class="st1" d="M351.8,87.7v34.9c0,2,1.6,3.6,3.6,3.6h35.1"/>
</g>
</svg>
