<svg xmlns="http://www.w3.org/2000/svg" viewBox="0 0 386.8 392"><defs><style>.cls-1{fill:#fff;}.cls-2{fill:#fc474b;}.cls-3{fill:#4b8598;}.cls-4{fill:#16597a;}.cls-5{fill:#0c232c;}.cls-6{fill:#1a82c2;}</style></defs><title>iconocelularnotificacion</title><g id="proyectos"><rect class="cls-1" y="42.7" width="340.9" height="349.26" rx="72" ry="72"/><circle class="cls-2" cx="332.1" cy="54.7" r="54.7"/></g><g id="Layer_3" data-name="Layer 3"><path class="cls-3" d="M122.1,197.5v-39a12.6,12.6,0,0,0-4.9-9.8,14.1,14.1,0,0,0-2.1-1.4l-2.2-.8a10.5,10.5,0,0,0-2.6-.5H108l-2.5.5a10.2,10.2,0,0,0-2.2,1,12.2,12.2,0,0,0-2.1,1.3,13.2,13.2,0,0,0-1.6,1.8,13.7,13.7,0,0,0-1.4,2.1,16.3,16.3,0,0,0-.8,2.2,11.6,11.6,0,0,0-.5,2.5c0,.3-.2.6-.2,1l.2,125.5a12.7,12.7,0,1,0,25.3-.1Z" transform="translate(-0.1 -4)"/><path class="cls-4" d="M160.2,235.3l.3-.2v-.2h-.1l10-13.8-50.9-70-.8-.7a12.4,12.4,0,0,1,3.2,8.2v39l36.1,49.7,1.4,1.9A12.6,12.6,0,0,1,160.2,235.3Z" transform="translate(-0.1 -4)"/><path class="cls-5" d="M118.8,150.3a12.4,12.4,0,0,0-1.7-1.6,14.1,14.1,0,0,0-2.1-1.4l-2.2-.8a10.5,10.5,0,0,0-2.6-.5H108l-2.5.5a10.2,10.2,0,0,0-2.2,1,12.2,12.2,0,0,0-2.1,1.3,13.2,13.2,0,0,0-1.6,1.8,13.7,13.7,0,0,0-1.4,2.1,16.3,16.3,0,0,0-.8,2.2,11.6,11.6,0,0,0-.5,2.5,12.6,12.6,0,0,0,2.2,8.4l23,31.6v-39A12.4,12.4,0,0,0,118.8,150.3Z" transform="translate(-0.1 -4)"/><path class="cls-5" d="M180.9,235.3l-.3-.2v-.2h0l-10-13.8-10,13.8h.1v.2l-.3.2a12.6,12.6,0,0,0-.6,13.8v.2h.1a13.2,13.2,0,0,0,2,2.2h.1a13.1,13.1,0,0,0,7.1,3.5h3.1a12.9,12.9,0,0,0,7.1-3.5h.1a13.2,13.2,0,0,0,2-2.2h.1l.2-.2A12.7,12.7,0,0,0,180.9,235.3Z" transform="translate(-0.1 -4)"/><path class="cls-3" d="M244.2,157.5a13.8,13.8,0,0,0-.5-2.5,16.4,16.4,0,0,0-.8-2.2,13.6,13.6,0,0,0-1.4-2.1,12.8,12.8,0,0,0-1.6-1.8l-2.1-1.3a10.4,10.4,0,0,0-2.3-1l-2.5-.5h-2.3a10.3,10.3,0,0,0-2.5.5l-2.2.8a11.3,11.3,0,0,0-2.1,1.4,12.2,12.2,0,0,0-1.8,1.7,12.5,12.5,0,0,0-3.2,8.1V284a12.7,12.7,0,1,0,25.3.1l.2-125.5C244.4,158.2,244.2,157.9,244.2,157.5Z" transform="translate(-0.1 -4)"/><path class="cls-6" d="M222.2,150.4c-.2.3-.5.4-.8.7l-50.9,70,10,13.8h0v.2l.3.2a12.7,12.7,0,0,1,.7,13.8l1.4-1.9L219,197.5v-39A12.5,12.5,0,0,1,222.2,150.4Z" transform="translate(-0.1 -4)"/><path class="cls-5" d="M180.9,235.3l-.3-.2v-.2h0l-10-13.8-10,13.8h.1v.2l-.3.2a12.6,12.6,0,0,0-.6,13.8v.2h.1a13.2,13.2,0,0,0,2,2.2h.1a13.1,13.1,0,0,0,7.1,3.5h3.1a12.9,12.9,0,0,0,7.1-3.5h.1a13.2,13.2,0,0,0,2-2.2h.1l.2-.2A12.7,12.7,0,0,0,180.9,235.3Z" transform="translate(-0.1 -4)"/><path class="cls-5" d="M244.2,157.5a13.8,13.8,0,0,0-.5-2.5,16.4,16.4,0,0,0-.8-2.2,13.6,13.6,0,0,0-1.4-2.1,12.8,12.8,0,0,0-1.6-1.8l-2.1-1.3a10.4,10.4,0,0,0-2.3-1l-2.5-.5h-2.3a10.3,10.3,0,0,0-2.5.5l-2.2.8a11.3,11.3,0,0,0-2.1,1.4,12.2,12.2,0,0,0-1.8,1.7,12.5,12.5,0,0,0-3.2,8.1v39L242,166A12.7,12.7,0,0,0,244.2,157.5Z" transform="translate(-0.1 -4)"/></g></svg>