<?xml version="1.0" encoding="utf-8"?>
<!-- Generator: Adobe Illustrator 21.1.0, SVG Export Plug-In . SVG Version: 6.00 Build 0)  -->
<svg version="1.1" id="Compromiso" xmlns="http://www.w3.org/2000/svg" xmlns:xlink="http://www.w3.org/1999/xlink" x="0px" y="0px"
	 viewBox="0 0 600 400" style="enable-background:new 0 0 600 400;" xml:space="preserve">
<style type="text/css">
	.st0{fill:none;stroke:#FFFFFF;stroke-width:5.6244;stroke-linecap:round;stroke-linejoin:round;stroke-miterlimit:10;}
	.st1{fill:none;stroke:#FFFFFF;stroke-width:8;stroke-miterlimit:10;}
</style>
<g>
	
		<ellipse transform="matrix(0.7071 -0.7071 0.7071 0.7071 -71.0285 170.0293)" class="st0" cx="169.7" cy="170.8" rx="4.3" ry="4.3"/>
	<g>
		
			<rect x="141.4" y="115.3" transform="matrix(0.7071 -0.7071 0.7071 0.7071 -34.4344 182.1931)" class="st0" width="122.7" height="34.7"/>
		<path class="st0" d="M212.9,228l-14.2-14.2c-14.3-14.3-14.3-37.4,0-51.6l33.2-33.2c14.3-14.3,37.4-14.3,51.6,0l9.3,9.3"/>
		<path class="st0" d="M312,180.4"/>
		<path class="st0" d="M336.7,226.5l31.8,31.8c5.9,5.9,15.5,5.9,21.4,0h0c5.9-5.9,5.9-15.5,0-21.4l-56.6-56.6"/>
		<path class="st0" d="M369.4,259.1c5.9,5.9,5.9,15.5,0,21.4v0c-5.9,5.9-15.5,5.9-21.4,0L312,244.6"/>
		<path class="st0" d="M345.7,278.2c5.9,5.9,5.9,15.5,0,21.4h0c-5.9,5.9-15.5,5.9-21.4,0l-10.2-10.2"/>
		<path class="st0" d="M250.9,233.9L231,253.8c-5.9,5.9-15.5,5.9-21.4,0l0,0c-5.9-5.9-5.9-15.5,0-21.4l19.9-19.9
			c5.9-5.9,15.5-5.9,21.4,0l0,0C256.8,218.4,256.8,228,250.9,233.9z"/>
		<path class="st0" d="M283,244.6l-30.6,30.6c-5.9,5.9-15.5,5.9-21.4,0h0c-5.9-5.9-5.9-15.5,0-21.4l30.6-30.6
			c5.9-5.9,15.5-5.9,21.4,0l0,0C288.9,229.1,288.9,238.7,283,244.6z"/>
		<path class="st0" d="M295.2,275.2l-21.4,21.4c-5.9,5.9-15.5,5.9-21.4,0h0c-5.9-5.9-5.9-15.5,0-21.4l21.4-21.4
			c5.9-5.9,15.5-5.9,21.4,0v0C301.1,259.7,301.1,269.3,295.2,275.2z"/>
		<path class="st0" d="M310,303.2L294.2,319c-5.4,5.4-14,5.4-19.4,0l-2-2c-5.4-5.4-5.4-14,0-19.4l15.8-15.8c5.4-5.4,14-5.4,19.4,0
			l2,2C315.3,289.2,315.3,297.9,310,303.2z"/>
		<path class="st0" d="M388.2,235.7l12.3-12.3c16.2-16.2,16.2-42.4,0-58.6L362.8,127c-16.2-16.2-42.4-16.2-58.6,0l-43.6,43.6
			c-2.5,2.5-2.5,6.6,0,9.2l0,0c9.7,9.7,25.5,9.7,35.2,0l17.7-17.7l0,0c16,16,41.9,16,57.9,0l1.6-1.6"/>
		
			<rect x="335.9" y="119.6" transform="matrix(-0.7071 -0.7071 0.7071 -0.7071 581.3535 514.7777)" class="st0" width="122.7" height="34.7"/>
		
			<ellipse transform="matrix(0.7071 -0.7071 0.7071 0.7071 2.2248 355.5264)" class="st0" cx="430.3" cy="175.1" rx="4.3" ry="4.3"/>
	</g>
</g>
<ellipse class="st1" cx="300" cy="200" rx="195.5" ry="196.5"/>
</svg>
