<?xml version="1.0" encoding="utf-8"?>
<!-- Generator: Adobe Illustrator 21.1.0, SVG Export Plug-In . SVG Version: 6.00 Build 0)  -->
<svg version="1.1" id="Empatia" xmlns="http://www.w3.org/2000/svg" xmlns:xlink="http://www.w3.org/1999/xlink" x="0px" y="0px"
	 viewBox="0 0 400 400" style="enable-background:new 0 0 400 400;display:none;" xml:space="preserve">
<style type="text/css">
	.st0{fill:none;stroke:#FFFFFF;stroke-width:5.6244;stroke-linecap:round;stroke-linejoin:round;stroke-miterlimit:10;}
	.st1{fill:none;stroke:#FFFFFF;stroke-width:8;stroke-miterlimit:10;}
</style>
<g style="display:inline;">
	<path class="st0" d="M181.7,252.2c17.8-16.8,28.4-41,27.1-67.7c-2.3-44.8-39.1-80.9-84-82.4c-50.3-1.6-91.4,39.4-89.9,89.6
		c1.4,45.1,37.7,82.1,82.7,84.2c9.1,0.4,18-0.5,26.3-2.7l36.3,24.9c1.6,1.1,3.7-0.1,3.6-2L181.7,252.2z"/>
	<path class="st0" d="M274.8,119.5c-24.5,0.8-46.6,11.9-62,29.2c7.2,13.1,11.1,28.3,10.6,44.4c-0.6,21-8.9,40.3-22.1,55.1
		c4.4,8,10,15.2,16.5,21.4l-2.2,43.9c-0.1,1.9,2.1,3.1,3.6,2l36.3-24.9c8.4,2.2,17.2,3.2,26.3,2.7c45.1-2.1,81.4-39.1,82.7-84.2
		C366.2,158.9,325.1,117.9,274.8,119.5z"/>
	<g>
		<path class="st0" d="M102.8,218.7c-1.8,0-3.3,1.6-3,3.4c1.5,9.4,9.5,16.6,19.3,16.8s18.1-6.8,19.9-16.1c0.3-1.8-1-3.5-2.9-3.5
			L102.8,218.7z"/>
		<path class="st0" d="M110.8,184.4c-0.7-4.5-4.6-8-9.3-8.1c-4.7-0.1-8.7,3.3-9.6,7.8"/>
		<path class="st0" d="M147.1,184.4c-0.7-4.5-4.6-8-9.3-8.1c-4.7-0.1-8.7,3.3-9.6,7.8"/>
	</g>
	<path class="st0" d="M271.3,229.1c-1.8,0-3.3,1.6-3,3.4c1.5,9.4,9.6,16.7,19.4,16.9s18.2-6.8,20-16.2c0.3-1.8-1-3.5-2.9-3.5
		L271.3,229.1z"/>
	<path class="st0" d="M278,194.1c-0.7-4.5-4.6-8-9.3-8.1c-4.7-0.1-8.7,3.3-9.6,7.8"/>
	<path class="st0" d="M314.3,194.1c-0.7-4.5-4.6-8-9.3-8.1c-4.7-0.1-8.7,3.3-9.6,7.8"/>
</g>
<ellipse style="display:inline;fill:none;stroke:#FFFFFF;stroke-width:8;stroke-miterlimit:10;" cx="200" cy="200" rx="195.5" ry="196.5"/>
</svg>
