<?xml version="1.0" encoding="utf-8"?>
<!-- Generator: Adobe Illustrator 21.1.0, SVG Export Plug-In . SVG Version: 6.00 Build 0)  -->
<svg version="1.1" id="Flexibilidad" xmlns="http://www.w3.org/2000/svg" xmlns:xlink="http://www.w3.org/1999/xlink" x="0px"
	 y="0px" viewBox="0 0 600 400" style="enable-background:new 0 0 600 400;" xml:space="preserve">
<style type="text/css">
	.st0{fill:none;stroke:#FFFFFF;stroke-width:5.6244;stroke-linecap:round;stroke-linejoin:round;stroke-miterlimit:10;}
	.st1{fill:none;stroke:#FFFFFF;stroke-width:8;stroke-miterlimit:10;}
</style>
<g>
	<path class="st0" d="M331.9,253.7l1-8.5c0.1-0.9-0.4-1.7-1.3-2.1l-12.3-4.7c-0.7-0.3-1.2-1-1.3-1.8c-0.1-2.4-0.3-4.8-0.6-7.2
		c-0.1-0.8,0.3-1.6,1-2l11.6-6.7c0.8-0.5,1.2-1.4,0.9-2.3l-2.3-8.2c-0.2-0.9-1.1-1.5-2-1.4l-13.3,0.3c-0.8,0-1.5-0.4-1.8-1.2
		c-1.1-2.5-2.4-4.9-3.7-7.3c-0.4-0.7-0.4-1.5,0.1-2.2l7.9-10.6c0.5-0.7,0.5-1.7,0-2.4l-5.4-6.7c-0.6-0.7-1.5-0.9-2.4-0.6l-12.1,5.4
		c-0.7,0.3-1.6,0.2-2.1-0.4c-1.8-1.6-3.6-3.2-5.5-4.6c-0.6-0.5-0.9-1.3-0.7-2.1l3.3-12.8c0.2-0.9-0.2-1.8-0.9-2.2l-7.5-4.2
		c-0.8-0.4-1.8-0.3-2.4,0.4l-9.1,9.5c-0.6,0.6-1.4,0.8-2.1,0.5c-2.5-1-5.1-1.8-7.8-2.5c-0.8-0.2-1.3-0.8-1.5-1.6l-1.9-13.1
		c-0.1-0.9-0.8-1.6-1.7-1.7l-8.5-1c-0.9-0.1-1.7,0.4-2.1,1.3l-4.7,12.3c-0.3,0.7-1,1.2-1.8,1.3c-2.4,0.1-4.8,0.3-7.2,0.6
		c-0.8,0.1-1.6-0.3-2-1l-6.7-11.6c-0.5-0.8-1.4-1.2-2.3-0.9l-8.2,2.3c-0.9,0.2-1.5,1.1-1.4,2l0.3,13.4c0,0.8-0.4,1.5-1.2,1.8
		c-2.5,1.1-4.9,2.4-7.3,3.7c-0.7,0.4-1.5,0.4-2.2-0.1l-10.6-7.9c-0.7-0.5-1.7-0.5-2.4,0l-6.7,5.4c-0.7,0.6-0.9,1.5-0.6,2.4l5.4,12.1
		c0.3,0.7,0.2,1.6-0.4,2.1c-1.6,1.8-3.2,3.6-4.6,5.5c-0.5,0.6-1.3,0.9-2.1,0.7l-12.8-3.3c-0.9-0.2-1.8,0.2-2.2,0.9l-4.2,7.5
		c-0.4,0.8-0.3,1.8,0.4,2.4l9.5,9.1c0.6,0.6,0.8,1.4,0.5,2.1c-1,2.5-1.8,5.1-2.5,7.8c-0.2,0.8-0.8,1.3-1.6,1.5l-13.1,1.9
		c-0.9,0.1-1.6,0.8-1.7,1.7l-1,8.5c-0.1,0.9,0.4,1.7,1.3,2.1l12.3,4.7c0.7,0.3,1.2,1,1.3,1.8c0.1,2.4,0.3,4.8,0.6,7.2
		c0.1,0.8-0.3,1.6-1,2l-11.6,6.7c-0.8,0.5-1.2,1.4-0.9,2.3l2.3,8.2c0.2,0.9,1.1,1.5,2,1.4l13.4-0.3c0.8,0,1.5,0.4,1.8,1.2
		c1.1,2.5,2.4,4.9,3.7,7.3c0.4,0.7,0.4,1.5-0.1,2.2l-7.9,10.6c-0.5,0.7-0.5,1.7,0,2.4l5.4,6.7c0.6,0.7,1.5,0.9,2.4,0.6l12.1-5.4
		c0.7-0.3,1.6-0.2,2.1,0.4c1.8,1.6,3.6,3.2,5.5,4.6c0.6,0.5,0.9,1.3,0.7,2.1l-3.3,12.8c-0.2,0.9,0.2,1.8,0.9,2.2l7.5,4.2
		c0.8,0.4,1.8,0.3,2.4-0.4l9.1-9.5c0.6-0.6,1.4-0.8,2.1-0.5c2.5,1,5.1,1.8,7.8,2.5c0.8,0.2,1.3,0.8,1.5,1.6l1.9,13.1
		c0.1,0.9,0.8,1.6,1.7,1.7l8.5,1c0.9,0.1,1.7-0.4,2.1-1.3l4.7-12.3c0.3-0.7,1-1.2,1.8-1.3c2.4-0.1,4.8-0.3,7.2-0.6
		c0.8-0.1,1.6,0.3,2,1l6.7,11.5c0.5,0.8,1.4,1.2,2.3,0.9l8.2-2.3c0.9-0.2,1.5-1.1,1.4-2l-0.3-13.3c0-0.8,0.4-1.5,1.2-1.8
		c2.5-1.1,4.9-2.4,7.3-3.7c0.7-0.4,1.5-0.4,2.2,0.1l10.6,7.9c0.7,0.5,1.7,0.5,2.4,0l6.7-5.4c0.7-0.6,0.9-1.5,0.6-2.4l-5.4-12.1
		c-0.3-0.7-0.2-1.6,0.4-2.1c1.6-1.8,3.2-3.6,4.6-5.5c0.5-0.6,1.3-0.9,2.1-0.7l12.8,3.3c0.9,0.2,1.8-0.2,2.2-0.9l4.2-7.5
		c0.4-0.8,0.3-1.8-0.4-2.4l-9.5-9.1c-0.6-0.6-0.8-1.4-0.5-2.1c1-2.5,1.8-5.1,2.5-7.8c0.2-0.8,0.8-1.3,1.6-1.5l13.1-1.9
		C331.1,255.3,331.8,254.6,331.9,253.7z M225.4,182.6c31.3-8.8,63.9,9.4,72.7,40.7c8.8,31.3-9.4,63.9-40.7,72.7
		c-31.3,8.8-63.9-9.4-72.7-40.7C175.9,224,194.1,191.5,225.4,182.6z"/>
	<path class="st0" d="M241.4,264.2c-13.7,0-24.9-11.1-24.9-24.9c0-13.7,11.1-24.9,24.9-24.9c13.7,0,24.9,11.1,24.9,24.9
		C266.3,253,255.1,264.2,241.4,264.2z M241.4,228.4c-6,0-10.9,4.9-10.9,10.9c0,6,4.9,10.9,10.9,10.9c6,0,10.9-4.9,10.9-10.9
		C252.4,233.3,247.5,228.4,241.4,228.4z"/>
	<path class="st0" d="M447.3,159.7l0.7-6.4c0.1-0.7-0.3-1.3-0.9-1.6l-9.3-3.6c-0.6-0.2-0.9-0.7-0.9-1.3c-0.1-1.8-0.2-3.6-0.4-5.4
		c-0.1-0.6,0.2-1.2,0.7-1.5l8.7-5c0.6-0.3,0.9-1,0.7-1.7l-1.8-6.2c-0.2-0.7-0.8-1.1-1.5-1.1l-10,0.3c-0.6,0-1.1-0.3-1.4-0.9
		c-0.8-1.9-1.8-3.7-2.8-5.5c-0.3-0.5-0.3-1.2,0.1-1.6l5.9-8c0.4-0.5,0.4-1.3,0-1.8l-4-5.1c-0.4-0.5-1.2-0.7-1.8-0.4l-9.1,4
		c-0.5,0.2-1.2,0.1-1.6-0.3c-1.3-1.2-2.7-2.4-4.1-3.5c-0.5-0.4-0.7-1-0.5-1.5l2.5-9.6c0.2-0.7-0.1-1.3-0.7-1.7l-5.6-3.2
		c-0.6-0.3-1.3-0.2-1.8,0.3l-6.9,7.2c-0.4,0.4-1,0.6-1.6,0.4c-1.9-0.7-3.9-1.4-5.8-1.9c-0.6-0.2-1-0.6-1.1-1.2l-1.4-9.8
		c-0.1-0.7-0.6-1.2-1.3-1.3l-6.4-0.7c-0.7-0.1-1.3,0.3-1.6,0.9l-3.6,9.3c-0.2,0.6-0.7,0.9-1.3,0.9c-1.8,0.1-3.6,0.2-5.4,0.4
		c-0.6,0.1-1.2-0.2-1.5-0.7l-5.1-8.8c-0.3-0.6-1-0.9-1.7-0.7l-6.2,1.8c-0.7,0.2-1.1,0.8-1.1,1.5l0.3,10.1c0,0.6-0.3,1.1-0.9,1.4
		c-1.9,0.8-3.7,1.8-5.5,2.8c-0.5,0.3-1.2,0.3-1.6-0.1l-8-5.9c-0.5-0.4-1.3-0.4-1.8,0l-5.1,4c-0.5,0.4-0.7,1.2-0.4,1.8l4,9.1
		c0.2,0.5,0.1,1.2-0.3,1.6c-1.2,1.3-2.4,2.7-3.5,4.1c-0.4,0.5-1,0.7-1.5,0.5l-9.6-2.5c-0.7-0.2-1.3,0.1-1.7,0.7l-3.2,5.6
		c-0.3,0.6-0.2,1.3,0.3,1.8l7.2,6.9c0.4,0.4,0.6,1,0.4,1.6c-0.7,1.9-1.4,3.9-1.9,5.8c-0.2,0.6-0.6,1-1.2,1.1l-9.8,1.4
		c-0.7,0.1-1.2,0.6-1.3,1.3l-0.7,6.4c-0.1,0.7,0.3,1.3,0.9,1.6l9.3,3.6c0.6,0.2,0.9,0.7,0.9,1.3c0.1,1.8,0.2,3.6,0.4,5.4
		c0.1,0.6-0.2,1.2-0.7,1.5l-8.8,5.1c-0.6,0.3-0.9,1-0.7,1.7l1.8,6.2c0.2,0.7,0.8,1.1,1.5,1.1l10.1-0.3c0.6,0,1.1,0.3,1.4,0.9
		c0.8,1.9,1.8,3.7,2.8,5.5c0.3,0.5,0.3,1.2-0.1,1.6l-5.9,8c-0.4,0.5-0.4,1.3,0,1.8l4,5.1c0.4,0.5,1.2,0.7,1.8,0.4l9.1-4
		c0.5-0.2,1.2-0.1,1.6,0.3c1.3,1.2,2.7,2.4,4.1,3.5c0.5,0.4,0.7,1,0.5,1.5l-2.5,9.6c-0.2,0.7,0.1,1.3,0.7,1.7l5.6,3.2
		c0.6,0.3,1.3,0.2,1.8-0.3l6.9-7.2c0.4-0.4,1-0.6,1.6-0.4c1.9,0.7,3.9,1.4,5.8,1.9c0.6,0.2,1,0.6,1.1,1.2l1.4,9.8
		c0.1,0.7,0.6,1.2,1.3,1.3l6.4,0.7c0.7,0.1,1.3-0.3,1.6-0.9l3.6-9.3c0.2-0.6,0.7-0.9,1.3-0.9c1.8-0.1,3.6-0.2,5.4-0.4
		c0.6-0.1,1.2,0.2,1.5,0.7l5,8.7c0.3,0.6,1,0.9,1.7,0.7l6.2-1.8c0.7-0.2,1.1-0.8,1.1-1.5l-0.3-10c0-0.6,0.3-1.1,0.9-1.4
		c1.9-0.8,3.7-1.8,5.5-2.8c0.5-0.3,1.2-0.3,1.6,0.1l8,5.9c0.5,0.4,1.3,0.4,1.8,0l5.1-4c0.5-0.4,0.7-1.2,0.4-1.8l-4-9.1
		c-0.2-0.5-0.1-1.2,0.3-1.6c1.2-1.3,2.4-2.7,3.5-4.1c0.4-0.5,1-0.7,1.5-0.5l9.6,2.5c0.7,0.2,1.3-0.1,1.7-0.7l3.2-5.6
		c0.3-0.6,0.2-1.3-0.3-1.8l-7.2-6.9c-0.4-0.4-0.6-1-0.4-1.6c0.7-1.9,1.4-3.9,1.9-5.8c0.2-0.6,0.6-1,1.2-1.1l9.8-1.4
		C446.7,160.9,447.2,160.4,447.3,159.7z M367.1,106.1c23.6-6.7,48.1,7.1,54.8,30.7c6.7,23.6-7.1,48.1-30.7,54.8
		c-23.6,6.7-48.1-7.1-54.8-30.7C329.8,137.3,343.5,112.8,367.1,106.1z"/>
	<path class="st0" d="M379.2,167.6c-10.3,0-18.7-8.4-18.7-18.7c0-10.3,8.4-18.7,18.7-18.7c10.3,0,18.7,8.4,18.7,18.7
		C397.9,159.2,389.5,167.6,379.2,167.6z M379.2,140.6c-4.5,0-8.2,3.7-8.2,8.2s3.7,8.2,8.2,8.2s8.2-3.7,8.2-8.2
		S383.7,140.6,379.2,140.6z"/>
</g>
<ellipse class="st1" cx="300" cy="200" rx="195.5" ry="196.5"/>
</svg>
