<?xml version="1.0" encoding="utf-8"?>
<!-- Generator: Adobe Illustrator 21.1.0, SVG Export Plug-In . SVG Version: 6.00 Build 0)  -->
<svg version="1.1" id="Honradez" xmlns="http://www.w3.org/2000/svg" xmlns:xlink="http://www.w3.org/1999/xlink" x="0px" y="0px"
	 viewBox="0 0 600 400" style="enable-background:new 0 0 600 400;" xml:space="preserve">
<style type="text/css">
	.st0{fill:none;stroke:#FFFFFF;stroke-width:5.6244;stroke-linecap:round;stroke-linejoin:round;stroke-miterlimit:10;}
	.st1{fill:none;stroke:#FFFFFF;stroke-width:8;stroke-miterlimit:10;}
</style>
<g>
	<path class="st0" d="M306.8,94.8c5.7-5.7,15.1-5.7,20.8,0s5.7,15.1,0,20.8"/>
	<path class="st0" d="M298.4,180.1L242.3,124c-5.6-5.6-5.6-14.6,0-20.2l26.6-26.6c5.6-5.6,14.6-5.6,20.2,0l56.1,56.1
		c5.6,5.6,5.6,14.6,0,20.2l-26.6,26.6C313,185.7,304,185.7,298.4,180.1z"/>
	<path class="st0" d="M142,280.4L142,280.4c-4.8-4.8-4.8-12.6,0-17.3l119.7-119.7l17.3,17.3L159.4,280.4
		C154.6,285.2,146.8,285.2,142,280.4z"/>
	<path class="st0" d="M444.2,303H223.5v-13.9c0-8.6,7-15.5,15.5-15.5h189.7c8.6,0,15.5,7,15.5,15.5V303z"/>
	<path class="st0" d="M417.2,273.6H245.6v-15.7c0-7.6,6.1-13.7,13.7-13.7h144.3c7.6,0,13.7,6.1,13.7,13.7V273.6z"/>
</g>
<ellipse class="st1" cx="300" cy="200" rx="195.5" ry="196.5"/>
</svg>
