<?xml version="1.0" encoding="utf-8"?>
<!-- Generator: Adobe Illustrator 21.1.0, SVG Export Plug-In . SVG Version: 6.00 Build 0)  -->
<svg version="1.1" id="Liderazgo" xmlns="http://www.w3.org/2000/svg" xmlns:xlink="http://www.w3.org/1999/xlink" x="0px" y="0px"
	 viewBox="0 0 600 400" style="enable-background:new 0 0 600 400;" xml:space="preserve">
<style type="text/css">
	.st0{fill:none;stroke:#FFFFFF;stroke-width:5.6244;stroke-linecap:round;stroke-linejoin:round;stroke-miterlimit:10;}
	.st1{fill:none;stroke:#FFFFFF;stroke-width:8;stroke-miterlimit:10;}
</style>
<g>
	<g>
		<line class="st0" x1="329.4" y1="105.8" x2="329.4" y2="299.4"/>
		<polygon class="st0" points="394.7,197.2 329.4,197.2 329.4,116.3 394.7,116.3 394.7,128.7 		"/>
		<path class="st0" d="M396,128h60.1l-31.3,44.4l31.3,39.2h-63.7c-6.7,0-12.1-5.4-12.1-12.1v-2.3"/>
	</g>
	<circle class="st0" cx="229" cy="147.5" r="46.9"/>
	<path class="st0" d="M292.4,299.1H167.1c-7.3,0-13.2-5.9-13.2-13.2v0c0-41.9,34-75.9,75.9-75.9h0c41.9,0,75.9,34,75.9,75.9v0
		C305.6,293.2,299.7,299.1,292.4,299.1z"/>
</g>
<ellipse class="st1" cx="300" cy="200" rx="195.5" ry="196.5"/>
</svg>
