<?xml version="1.0" encoding="utf-8"?>
<!-- Generator: Adobe Illustrator 21.1.0, SVG Export Plug-In . SVG Version: 6.00 Build 0)  -->
<svg version="1.1" id="Socializar" xmlns="http://www.w3.org/2000/svg" xmlns:xlink="http://www.w3.org/1999/xlink" x="0px" y="0px"
	 viewBox="0 0 600 400" style="enable-background:new 0 0 600 400;" xml:space="preserve">
<style type="text/css">
	.st0{fill:none;stroke:#FFFFFF;stroke-width:5.6244;stroke-linecap:round;stroke-linejoin:round;stroke-miterlimit:10;}
	.st1{fill:none;stroke:#FFFFFF;stroke-width:8;stroke-miterlimit:10;}
</style>
<g>
	<line class="st0" x1="303.1" y1="75.7" x2="352.5" y2="75.7"/>
	<line class="st0" x1="338.1" y1="93.5" x2="260" y2="93.5"/>
	<line class="st0" x1="321.6" y1="111.4" x2="268.9" y2="111.4"/>
	<line class="st0" x1="317.5" y1="125.8" x2="279.8" y2="125.8"/>
	<circle class="st0" cx="224.7" cy="224.5" r="31.3"/>
	<path class="st0" d="M266.9,325.5h-83.5c-4.9,0-8.8-3.9-8.8-8.8v0c0-27.9,22.6-50.5,50.5-50.5h0c27.9,0,50.5,22.6,50.5,50.5v0
		C275.7,321.6,271.8,325.5,266.9,325.5z"/>
	<circle class="st0" cx="374.3" cy="224.5" r="31.3"/>
	<path class="st0" d="M416.6,325.5h-83.5c-4.9,0-8.8-3.9-8.8-8.8v0c0-27.9,22.6-50.5,50.5-50.5h0c27.9,0,50.5,22.6,50.5,50.5v0
		C425.4,321.6,421.4,325.5,416.6,325.5z"/>
	<path class="st0" d="M363.9,43.5H235.8c-7.8,0-14.1,6.3-14.1,14.1v89c0,7.8,6.3,14.1,14.1,14.1h6.5v19c0,1.1,1.4,1.7,2.2,0.9
		l19.9-19.9h70.9l19.9,19.9c0.8,0.8,2.2,0.2,2.2-0.9v-19h6.5c7.8,0,14.1-6.3,14.1-14.1v-89C378,49.8,371.7,43.5,363.9,43.5z"/>
</g>
<ellipse class="st1" cx="300" cy="199.5" rx="195.5" ry="196.5"/>
</svg>
