<?xml version="1.0" encoding="utf-8"?>
<!-- Generator: Adobe Illustrator 21.1.0, SVG Export Plug-In . SVG Version: 6.00 Build 0)  -->
<svg version="1.1" id="TrabajoEquipo" xmlns="http://www.w3.org/2000/svg" xmlns:xlink="http://www.w3.org/1999/xlink" x="0px"
	 y="0px" viewBox="0 0 600 400" style="enable-background:new 0 0 600 400;" xml:space="preserve">
<style type="text/css">
	.st0{fill:none;stroke:#FFFFFF;stroke-width:5.6244;stroke-linecap:round;stroke-linejoin:round;stroke-miterlimit:10;}
	.st1{fill:none;stroke:#FFFFFF;stroke-width:8;stroke-miterlimit:10;}
</style>
<g>
	<path class="st0" d="M249.5,244.1"/>
	<path class="st0" d="M241,319.3c0,5.4-4.3,9.7-9.7,9.7h0c-5.4,0-9.7-4.3-9.7-9.7v-28.9"/>
	<path class="st0" d="M221.6,316.3c0,5.4-4.3,9.7-9.7,9.7h0c-5.4,0-9.7-4.3-9.7-9.7v-27.7"/>
	<path class="st0" d="M189.2,158.6l0,45.3c0,1.1-0.4,2.3-1.1,3.2c-3.1,4-4.9,8.9-4.9,14.3l0.5,89.4c0,5.4,4.3,9.7,9.7,9.7
		c3.9,0,7.2-2.3,8.8-5.5"/>
	<path class="st0" d="M282.9,250.2c-1-21.8-13.7-40.4-31.9-49.8c0-0.3-0.1-0.6-0.1-0.9V159"/>
	<path class="st0" d="M241,289.7v28.9c0,5.4,4.3,9.7,9.7,9.7h0c5.4,0,9.7-4.3,9.7-9.7l0.5-70.8c0-1,0.7-2,1.7-2.2
		c0.4-0.1,0.9-0.1,1.3-0.1c3,0,5.5,2,6.2,4.7"/>
	<path class="st0" d="M359.9,80.7c0-5.4,4.3-9.7,9.7-9.7h0c5.4,0,9.7,4.3,9.7,9.7v28.9"/>
	<path class="st0" d="M379.4,83.7c0-5.4,4.3-9.7,9.7-9.7h0c5.4,0,9.7,4.3,9.7,9.7v27.7"/>
	<path class="st0" d="M411.8,240.4v-44.3c0-1.1,0.4-2.3,1.1-3.2c3.1-4,4.9-8.9,4.9-14.3l-0.5-89.4c0-5.4-4.3-9.7-9.7-9.7
		c-3.9,0-7.2,2.3-8.8,5.5"/>
	<path class="st0" d="M318,149.2c0.8,22.1,13.6,40.9,31.9,50.4c0,0.3,0.1,0.6,0.1,0.9v39.4"/>
	<path class="st0" d="M359.9,110.3V81.4c0-5.4-4.3-9.7-9.7-9.7h0c-5.4,0-9.7,4.3-9.7,9.7l-0.5,70.8c0,1-0.7,2-1.7,2.2
		c-0.4,0.1-0.9,0.1-1.3,0.1c-3.2,0-5.8-2.3-6.4-5.3"/>
	<path class="st0" d="M182.1,138.7c-5.4,0-9.7-4.3-9.7-9.7v0c0-5.4,4.3-9.7,9.7-9.7H211"/>
	<path class="st0" d="M185.1,119.3c-5.4,0-9.7-4.3-9.7-9.7v0c0-5.4,4.3-9.7,9.7-9.7h27.7"/>
	<path class="st0" d="M340.5,86.8l-43,0c-1.1,0-2.3-0.4-3.2-1.1c-4-3.1-8.9-4.9-14.3-4.9l-89.4,0.5c-5.4,0-9.7,4.3-9.7,9.7
		c0,3.9,2.3,7.2,5.5,8.8"/>
	<path class="st0" d="M251,180.6c21.9-0.9,40.5-13.7,50-31.9c0.3,0,0.6-0.1,0.9-0.1H340"/>
	<path class="st0" d="M211.7,138.7h-28.9c-5.4,0-9.7,4.3-9.7,9.7v0c0,5.4,4.3,9.7,9.7,9.7l70.8,0.5c1,0,2,0.7,2.2,1.7
		c0.1,0.4,0.1,0.9,0.1,1.3c0,2.9-2,5.4-4.7,6.2"/>
	<path class="st0" d="M417.9,260.4c5.4,0,9.7,4.3,9.7,9.7l0,0c0,5.4-4.3,9.7-9.7,9.7H389"/>
	<path class="st0" d="M414.9,279.8c5.4,0,9.7,4.3,9.7,9.7v0c0,5.4-4.3,9.7-9.7,9.7h-27.7"/>
	<path class="st0" d="M260.5,312.2l42,0c1.1,0,2.3,0.4,3.2,1.1c4,3.1,8.9,4.9,14.3,4.9l89.4-0.5c5.4,0,9.7-4.3,9.7-9.7
		c0-3.9-2.3-7.2-5.5-8.8"/>
	<path class="st0" d="M349.4,218.4c-22.1,0.8-40.9,13.6-50.4,31.9c-0.3,0-38.1,0.1-38.1,0.1"/>
	<path class="st0" d="M388.3,260.4h28.9c5.4,0,9.7-4.3,9.7-9.7v0c0-5.4-4.3-9.7-9.7-9.7l-70.8-0.5c-1,0-2-0.7-2.2-1.7
		c-0.1-0.4-0.1-0.9-0.1-1.3c0-3.2,2.3-5.8,5.3-6.4"/>
</g>
<ellipse class="st1" cx="300" cy="200" rx="195.5" ry="196.5"/>
</svg>
