<?xml version="1.0" encoding="utf-8"?>
<!-- Generator: Adobe Illustrator 21.1.0, SVG Export Plug-In . SVG Version: 6.00 Build 0)  -->
<svg version="1.1" id="Arte" xmlns="http://www.w3.org/2000/svg" xmlns:xlink="http://www.w3.org/1999/xlink" x="0px" y="0px"
	 viewBox="0 0 400 400" style="enable-background:new 0 0 400 400;display:none;" xml:space="preserve">
<style type="text/css">
	.st0{fill:none;stroke:#FFFFFF;stroke-width:5.6244;stroke-linecap:round;stroke-linejoin:round;stroke-miterlimit:10;}
	.st1{fill:none;stroke:#FFFFFF;stroke-width:8;stroke-miterlimit:10;}
</style>
<g style="display:inline;">
	<polyline class="st0" points="117.4,240.2 70.4,240.2 70.4,84 329.6,84 329.6,240.2 283.1,240.2 	"/>
	<polyline class="st0" points="161.9,82.1 161.9,63 238.1,63 238.1,82.1 	"/>
	<rect x="118.1" y="230.7" class="st0" width="163.9" height="19.1"/>
	<line class="st0" x1="131.4" y1="337" x2="184.6" y2="249.7"/>
	<line class="st0" x1="215.4" y1="249.7" x2="268.6" y2="337"/>
	<line class="st0" x1="200" y1="337" x2="200" y2="249.7"/>
	<g>
		<polyline class="st0" points="218.1,210.7 193.3,173.5 168.6,136.4 143.8,173.5 119,210.7 		"/>
		<polyline class="st0" points="274,210.7 253.7,180.2 233.3,149.7 213,180.2 205.4,191.6 		"/>
		<circle class="st0" cx="265.7" cy="128.7" r="15.2"/>
	</g>
</g>
<ellipse style="display:inline;fill:none;stroke:#FFFFFF;stroke-width:8;stroke-miterlimit:10;" cx="200" cy="200" rx="195.5" ry="196.5"/>
</svg>
