<?xml version="1.0" encoding="utf-8"?>
<!-- Generator: Adobe Illustrator 21.1.0, SVG Export Plug-In . SVG Version: 6.00 Build 0)  -->
<svg version="1.1" id="Arte" xmlns="http://www.w3.org/2000/svg" xmlns:xlink="http://www.w3.org/1999/xlink" x="0px" y="0px"
	 viewBox="0 0 600 400" style="enable-background:new 0 0 600 400;" xml:space="preserve">
<style type="text/css">
	.st0{fill:none;stroke:#FFFFFF;stroke-width:5.6244;stroke-linecap:round;stroke-linejoin:round;stroke-miterlimit:10;}
	.st1{fill:none;stroke:#FFFFFF;stroke-width:8;stroke-miterlimit:10;}
</style>
<g>
	<polyline class="st0" points="217.4,240.2 170.4,240.2 170.4,84 429.6,84 429.6,240.2 383.1,240.2 	"/>
	<polyline class="st0" points="261.9,82.1 261.9,63 338.1,63 338.1,82.1 	"/>
	<rect x="218.1" y="230.7" class="st0" width="163.9" height="19.1"/>
	<line class="st0" x1="231.4" y1="337" x2="284.6" y2="249.7"/>
	<line class="st0" x1="315.4" y1="249.7" x2="368.6" y2="337"/>
	<line class="st0" x1="300" y1="337" x2="300" y2="249.7"/>
	<g>
		<polyline class="st0" points="318.1,210.7 293.3,173.5 268.6,136.4 243.8,173.5 219,210.7 		"/>
		<polyline class="st0" points="374,210.7 353.7,180.2 333.3,149.7 313,180.2 305.4,191.6 		"/>
		<circle class="st0" cx="365.7" cy="128.7" r="15.2"/>
	</g>
</g>
<ellipse class="st1" cx="300" cy="200" rx="195.5" ry="196.5"/>
</svg>
