<?xml version="1.0" encoding="utf-8"?>
<!-- Generator: Adobe Illustrator 21.1.0, SVG Export Plug-In . SVG Version: 6.00 Build 0)  -->
<svg version="1.1" id="Cine" xmlns="http://www.w3.org/2000/svg" xmlns:xlink="http://www.w3.org/1999/xlink" x="0px" y="0px"
	 viewBox="0 0 600 400" style="enable-background:new 0 0 600 400;" xml:space="preserve">
<style type="text/css">
	.st0{fill:none;stroke:#FFFFFF;stroke-width:5.6244;stroke-linecap:round;stroke-linejoin:round;stroke-miterlimit:10;}
	.st1{fill:none;stroke:#FFFFFF;stroke-width:8;stroke-miterlimit:10;}
</style>
<g>
	<path class="st0" d="M173.3,134.3l232.8-74.1c4.1-1.3,8.6,1,9.8,5.2l5.1,16.6c1.3,4.1-1,8.5-5.1,9.8l-204,64.2h212.4
		c4.3,0,7.8,3.5,7.8,7.9v19.4l-264.3-5.1v-36.4C167.9,138.4,170.1,135.4,173.3,134.3z"/>
	<path class="st0" d="M432.1,163.5v158.7H167.9V178.2 M399.1,156.1 M211.9,156.1 M210.2,145.8"/>
	<path class="st0" d="M186.3,167.2c6.1,0,11-5,11-11.1c0-6.1-4.9-11.1-11-11.1c-6.1,0-11,5-11,11.1
		C175.3,162.2,180.2,167.2,186.3,167.2L186.3,167.2z"/>
	<line class="st0" x1="234.3" y1="156" x2="210.7" y2="179.1"/>
	<path class="st0" d="M244.1,179.7"/>
	<path class="st0" d="M266.2,156.6"/>
	<path class="st0" d="M266.6,156.1"/>
	<path class="st0" d="M318.7,181.2"/>
	<line class="st0" x1="318.7" y1="181.2" x2="343.9" y2="156"/>
	<line class="st0" x1="350.7" y1="78.1" x2="391.8" y2="99.7"/>
	<line class="st0" x1="298.7" y1="94.9" x2="339.8" y2="116.5"/>
	<line class="st0" x1="244.8" y1="111.7" x2="285.9" y2="133.3"/>
	<line class="st0" x1="192.8" y1="128.5" x2="233.1" y2="149.6"/>
	<line class="st0" x1="267.6" y1="180.2" x2="291.9" y2="156"/>
	<line class="st0" x1="372.3" y1="182.1" x2="398.6" y2="156.1"/>
	<line class="st0" x1="189.7" y1="213.9" x2="408.9" y2="213.9"/>
	<line class="st0" x1="189.7" y1="260.6" x2="408.9" y2="260.6"/>
	<line class="st0" x1="189.7" y1="301.6" x2="408.9" y2="301.6"/>
	<line class="st0" x1="242.6" y1="214.7" x2="242.6" y2="247.5"/>
	<line class="st0" x1="352.2" y1="214.7" x2="352.2" y2="247.5"/>
</g>
<ellipse class="st1" cx="300" cy="199.5" rx="195.5" ry="196.5"/>
</svg>
