<?xml version="1.0" encoding="utf-8"?>
<!-- Generator: Adobe Illustrator 21.1.0, SVG Export Plug-In . SVG Version: 6.00 Build 0)  -->
<svg version="1.1" id="Dibujar" xmlns="http://www.w3.org/2000/svg" xmlns:xlink="http://www.w3.org/1999/xlink" x="0px" y="0px"
	 viewBox="0 0 400 400" style="enable-background:new 0 0 400 400;display:none;" xml:space="preserve">
<style type="text/css">
	.st0{fill:none;stroke:#FFFFFF;stroke-width:5.6244;stroke-linecap:round;stroke-linejoin:round;stroke-miterlimit:10;}
	.st1{fill:none;stroke:#FFFFFF;stroke-width:8;stroke-miterlimit:10;}
</style>
<g style="display:inline;">
	<path class="st0" d="M128.3,271.2c2.2-6,4.5-12,6.7-18c3.4-9.3,6.9-18.5,10.3-27.7c1.4-3.9,3-6.3,5.9-9.3c3.2-3.2,6.3-6.3,9.5-9.5
		c5.1-5.1,10.3-10.3,15.4-15.4c6.3-6.3,12.5-12.5,18.8-18.8c6.8-6.8,13.6-13.6,20.4-20.4c7-7,14.1-14.1,21.1-21.1
		c6.8-6.8,13.7-13.7,20.5-20.5c6-6,12-12,18-18c4.6-4.6,9.1-9.2,13.7-13.7c3.2-3.2,6.4-6.4,9.7-9.6c4.3-4.3,11.6-6.1,16.7-1.8
		c4.3,3.6,8.2,7.6,12.2,11.5c5.2,5.1,16.8,14.6,8.7,22.8c-1.8,1.8-3.6,3.6-5.4,5.3c-3.6,3.6-7.2,7.1-10.8,10.7
		c-5.4,5.4-10.9,10.8-16.3,16.1c-6.4,6.4-12.9,12.7-19.3,19.1c-7,6.9-13.9,13.8-20.9,20.7c-7.1,7-14.1,14-21.2,21
		c-6.7,6.6-13.4,13.3-20.1,19.9c-5.9,5.8-11.8,11.6-17.6,17.4c-4.3,4.3-8.7,8.6-13,12.9c-2.5,2.5-5,5.3-7.7,7.6
		c-2.3,1.9-5,2.6-7.8,3.4c-4.3,1.3-8.7,2.8-13,4.2c-9.3,3-18.7,6-28,9C132.6,269.8,130.4,270.5,128.3,271.2z"/>
	<line class="st0" x1="290.2" y1="77.3" x2="325.1" y2="112"/>
	<line class="st0" x1="280.9" y1="86.6" x2="315.8" y2="121.4"/>
	<line class="st0" x1="152.6" y1="215.9" x2="185.7" y2="248.9"/>
	<line class="st0" x1="134.7" y1="253.9" x2="146.4" y2="265.4"/>
	<path class="st0" d="M114.3,276.7c0,0-43.1-1.3-54.2,13.7c-5.8,7.9,21.7,7.8,24.1,7.8c13.7,0.3,27.4-0.5,41-0.7
		c11.8-0.2,26.6-2,37.3,4.1c6.3,3.5,13.5,10.5,10.6,18.5c-2.5,6.8-12.1,10.6-18.3,13.3c-3.5,1.5-7.1,2.6-10.7,3.5
		c-11.3,3-23,4.2-34.7,5.1"/>
</g>
<ellipse style="display:inline;fill:none;stroke:#FFFFFF;stroke-width:8;stroke-miterlimit:10;" cx="200" cy="199.5" rx="195.5" ry="196.5"/>
</svg>
