<?xml version="1.0" encoding="utf-8"?>
<!-- Generator: Adobe Illustrator 21.1.0, SVG Export Plug-In . SVG Version: 6.00 Build 0)  -->
<svg version="1.1" id="Ejercicio" xmlns="http://www.w3.org/2000/svg" xmlns:xlink="http://www.w3.org/1999/xlink" x="0px" y="0px"
	 viewBox="0 0 400 400" style="enable-background:new 0 0 400 400;display:none;" xml:space="preserve">
<style type="text/css">
	.st0{fill:none;stroke:#FFFFFF;stroke-width:5.6244;stroke-linecap:round;stroke-linejoin:round;stroke-miterlimit:10;}
	.st1{fill:none;stroke:#FFFFFF;stroke-width:8;stroke-miterlimit:10;}
</style>
<g style="display:inline;">
	<line class="st0" x1="257.9" y1="212.3" x2="142.1" y2="212.3"/>
	<line class="st0" x1="142.1" y1="183.6" x2="257.9" y2="183.6"/>
	<path class="st0" d="M50,213.9h-2.5c-3.6,0-6.5-2.9-6.5-6.5v-15.7c0-3.6,2.9-6.5,6.5-6.5H50c3.6,0,6.5,2.9,6.5,6.5v15.7
		C56.5,211,53.6,213.9,50,213.9z"/>
	<g>
		<path class="st0" d="M123.6,287h-17.6c-10.2,0-18.4-8.3-18.4-18.4V130.4c0-10.2,8.3-18.4,18.4-18.4h17.6
			c10.2,0,18.4,8.3,18.4,18.4v138.1C142.1,278.7,133.8,287,123.6,287z"/>
		<path class="st0" d="M74.6,260.6h-5c-7.2,0-13-5.8-13-13v-96c0-7.2,5.8-13,13-13h5c7.2,0,13,5.8,13,13v96
			C87.6,254.7,81.8,260.6,74.6,260.6z"/>
	</g>
	<path class="st0" d="M293.9,287h-17.6c-10.2,0-18.4-8.3-18.4-18.4V130.4c0-10.2,8.3-18.4,18.4-18.4h17.6c10.2,0,18.4,8.3,18.4,18.4
		v138.1C312.4,278.7,304.1,287,293.9,287z"/>
	<path class="st0" d="M330.5,260.6h-5c-7.2,0-13-5.8-13-13v-96c0-7.2,5.8-13,13-13h5c7.2,0,13,5.8,13,13v96
		C343.5,254.7,337.7,260.6,330.5,260.6z"/>
	<path class="st0" d="M352.5,213.9H350c-3.6,0-6.5-2.9-6.5-6.5v-15.7c0-3.6,2.9-6.5,6.5-6.5h2.5c3.6,0,6.5,2.9,6.5,6.5v15.7
		C359.1,211,356.1,213.9,352.5,213.9z"/>
</g>
<ellipse style="display:inline;fill:none;stroke:#FFFFFF;stroke-width:8;stroke-miterlimit:10;" cx="200" cy="199.5" rx="195.5" ry="196.5"/>
</svg>
