<?xml version="1.0" encoding="utf-8"?>
<!-- Generator: Adobe Illustrator 21.1.0, SVG Export Plug-In . SVG Version: 6.00 Build 0)  -->
<svg version="1.1" id="Escribir" xmlns="http://www.w3.org/2000/svg" xmlns:xlink="http://www.w3.org/1999/xlink" x="0px" y="0px"
	 viewBox="0 0 600 400" style="enable-background:new 0 0 600 400;" xml:space="preserve">
<style type="text/css">
	.st0{fill:none;stroke:#FFFFFF;stroke-width:5.6244;stroke-linecap:round;stroke-linejoin:round;stroke-miterlimit:10;}
	.st1{fill:none;stroke:#FFFFFF;stroke-width:8;stroke-miterlimit:10;}
</style>
<g>
	<g>
		<line class="st0" x1="203.9" y1="171.3" x2="327.6" y2="171.3"/>
		<line class="st0" x1="203.9" y1="214.8" x2="327.6" y2="214.8"/>
		<line class="st0" x1="203.9" y1="258.2" x2="327.6" y2="258.2"/>
	</g>
	<g>
		<path class="st0" d="M407.8,148c1.8,3.6,3.5,7.2,5.3,10.8c2.8,5.5,5.5,11.1,8.2,16.6c1.2,2.3,1.6,4.1,1.7,6.7
			c0.1,2.8,0.2,5.6,0.2,8.4c0.1,4.6,0.3,9.1,0.4,13.7c0.2,5.6,0.3,11.1,0.5,16.7c0.2,6,0.4,12,0.5,18.1c0.2,6.2,0.4,12.5,0.6,18.7
			c0.2,6.1,0.4,12.1,0.5,18.2c0.2,5.3,0.3,10.6,0.5,16c0.1,4.1,0.3,8.1,0.4,12.2c0.1,2.8,0.1,5.7,0.2,8.5c0.1,3.8-2.2,7.9-6.4,8.4
			c-3.5,0.4-7,0.5-10.5,0.6c-4.6,0.2-13.9,1.4-14.1-5.8c0-1.6-0.1-3.2-0.1-4.8c-0.1-3.2-0.2-6.4-0.2-9.6c-0.1-4.8-0.2-9.6-0.4-14.4
			c-0.1-5.7-0.3-11.4-0.4-17c-0.2-6.1-0.3-12.3-0.5-18.4c-0.2-6.2-0.3-12.5-0.5-18.7c-0.1-5.9-0.3-11.8-0.4-17.7
			c-0.1-5.2-0.3-10.4-0.4-15.6c-0.1-3.8-0.2-7.7-0.3-11.5c-0.1-2.2-0.3-4.6-0.2-6.8c0.1-1.9,1-3.4,1.8-5.1c1.3-2.6,2.5-5.1,3.7-7.7
			c2.6-5.6,5.3-11.1,8-16.7C406.6,150.6,407.2,149.3,407.8,148z"/>
		<line class="st0" x1="426.7" y1="305.4" x2="395.8" y2="306.3"/>
		<line class="st0" x1="426.4" y1="297.1" x2="395.6" y2="298.1"/>
		<line class="st0" x1="422.5" y1="182.9" x2="393.3" y2="183.8"/>
		<line class="st0" x1="412.9" y1="158.4" x2="402.7" y2="158.8"/>
	</g>
	<path class="st0" d="M351.9,321.5H179.6c-3.6,0-6.4-2.9-6.4-6.4V84.7c0-3.6,2.9-6.4,6.4-6.4h116.7c2.2,0,4.3,0.9,5.9,2.4l53.6,52.4
		c1.6,1.6,2.5,3.8,2.5,6v175.9C358.4,318.6,355.5,321.5,351.9,321.5z"/>
	<polyline class="st0" points="357.7,135.6 303.1,135.6 299.7,135.6 299.7,79.6 	"/>
</g>
<ellipse class="st1" cx="300" cy="200" rx="195.5" ry="196.5"/>
</svg>
