<?xml version="1.0" encoding="utf-8"?>
<!-- Generator: Adobe Illustrator 21.1.0, SVG Export Plug-In . SVG Version: 6.00 Build 0)  -->
<svg version="1.1" id="Leer" xmlns="http://www.w3.org/2000/svg" xmlns:xlink="http://www.w3.org/1999/xlink" x="0px" y="0px"
	 viewBox="0 0 400 400" style="enable-background:new 0 0 400 400;display:none;" xml:space="preserve">
<style type="text/css">
	.st0{fill:none;stroke:#FFFFFF;stroke-width:5.6244;stroke-linecap:round;stroke-linejoin:round;stroke-miterlimit:10;}
	.st1{fill:none;stroke:#FFFFFF;stroke-width:8;stroke-miterlimit:10;}
</style>
<g style="display:inline;">
	<rect x="56.3" y="96.7" class="st0" width="131.6" height="184.4"/>
	<polyline class="st0" points="200.4,289.4 200.4,110.6 213,96.8 	"/>
	<line class="st0" x1="200.6" y1="110.6" x2="188" y2="96.8"/>
	<rect x="213" y="96.7" class="st0" width="131.6" height="184.4"/>
	<line class="st0" x1="235.1" y1="127.5" x2="322.5" y2="127.5"/>
	<line class="st0" x1="235.1" y1="158.2" x2="322.5" y2="158.2"/>
	<line class="st0" x1="235.1" y1="189" x2="322.5" y2="189"/>
	<line class="st0" x1="235.1" y1="219.7" x2="322.5" y2="219.7"/>
	<line class="st0" x1="235.1" y1="250.4" x2="322.5" y2="250.4"/>
	<line class="st0" x1="200.4" y1="289.8" x2="213" y2="281.2"/>
	<line class="st0" x1="200.6" y1="289.8" x2="188" y2="281.2"/>
	<line class="st0" x1="78.3" y1="189" x2="165.8" y2="189"/>
	<line class="st0" x1="78.3" y1="219.7" x2="165.8" y2="219.7"/>
	<line class="st0" x1="78.3" y1="250.4" x2="165.8" y2="250.4"/>
	<path class="st0" d="M56.3,106.7H45.4v186.2H181v0.8c0,5.3,4.3,9.6,9.6,9.6h18.9c5.3,0,9.6-4.3,9.6-9.6v-0.8h135.5V106.7h-10"/>
	<path class="st0" d="M157.9,156.5H85.4c-4.1,0-7.5-3.3-7.5-7.5v-20.6c0-4.1,3.3-7.5,7.5-7.5h72.5c4.1,0,7.5,3.3,7.5,7.5V149
		C165.4,153.1,162,156.5,157.9,156.5z"/>
</g>
<ellipse style="display:inline;fill:none;stroke:#FFFFFF;stroke-width:8;stroke-miterlimit:10;" cx="200" cy="200" rx="195.5" ry="196.5"/>
</svg>
