<?xml version="1.0" encoding="utf-8"?>
<!-- Generator: Adobe Illustrator 21.1.0, SVG Export Plug-In . SVG Version: 6.00 Build 0)  -->
<svg version="1.1" id="Salirconamigos" xmlns="http://www.w3.org/2000/svg" xmlns:xlink="http://www.w3.org/1999/xlink" x="0px"
	 y="0px" viewBox="0 0 600 400" style="enable-background:new 0 0 600 400;" xml:space="preserve">
<style type="text/css">
	.st0{fill:none;stroke:#FFFFFF;stroke-width:7.3496;stroke-linecap:round;stroke-linejoin:round;stroke-miterlimit:10;}
	.st1{fill:none;stroke:#FFFFFF;stroke-width:8;stroke-miterlimit:10;}
</style>
<path class="st0" d="M312.2,194.6"/>
<g>
	<path class="st0" d="M243.1,302.3c-0.9-0.6-1.7-1.3-2.4-2l-1.5-1.4"/>
	<g>
		<path class="st0" d="M326.1,177.5l-4.9-10.8c-3.5-7.7-10.6-15.9-11-24.3l0-99.9c0-1.6-1.3-2.9-2.9-2.9h-34.9
			c-1.6,0-2.9,1.3-2.9,2.9l0,99.9c-0.4,8.4-7.5,16.6-11,24.2l-7.3,16c-0.4,0.9-0.8,1.9-1.1,2.9"/>
		<path class="st0" d="M249.1,270.1v78.8c0,6.4,5.2,11.6,11.6,11.6H319c6.4,0,11.6-5.2,11.6-11.6V206"/>
		<line class="st0" x1="251.1" y1="207.6" x2="330.6" y2="207.6"/>
		<line class="st0" x1="249.1" y1="324.8" x2="330.6" y2="324.8"/>
		<line class="st0" x1="269.4" y1="54.8" x2="310.2" y2="54.8"/>
		<line class="st0" x1="269.4" y1="85.4" x2="310.2" y2="85.4"/>
	</g>
	<g>
		<path class="st0" d="M240.8,212.8h-26.7c-7.9,0-14.4-6.4-14.4-14.4v0c0-7.9,6.4-14.4,14.4-14.4h26.7c7.9,0,14.4,6.4,14.4,14.4v0
			C255.2,206.4,248.8,212.8,240.8,212.8z"/>
		<path class="st0" d="M255.2,241.5h-41c-7.9,0-14.4-6.4-14.4-14.4v0c0-7.9,6.4-14.4,14.4-14.4h41c7.9,0,14.4,6.4,14.4,14.4v0
			C269.6,235.1,263.1,241.5,255.2,241.5z"/>
		<path class="st0" d="M242.9,270.2h-28.7c-7.9,0-14.4-6.4-14.4-14.4v0c0-7.9,6.4-14.4,14.4-14.4h28.7c7.9,0,14.4,6.4,14.4,14.4v0
			C257.2,263.8,250.8,270.2,242.9,270.2z"/>
		<path class="st0" d="M234,298.9h-21.1c-7.2,0-13-5.8-13-13v-2.7c0-7.2,5.8-13,13-13H234c7.2,0,13,5.8,13,13v2.7
			C247,293.1,241.2,298.9,234,298.9z"/>
		<path class="st0" d="M372.1,245.5h-2.2c-21.5,0-38.8-17.4-38.8-38.8v0h-23.7c-13,0-23.6-10.6-23.6-23.6v0c0-3.4,2.7-6.1,6.1-6.1
			h58.4c21.7,0,39.3,17.6,39.3,39.3v50.6c0,21.7-17.6,39.3-39.3,39.3h-12"/>
		
			<rect x="345.9" y="229.5" transform="matrix(-6.741801e-11 -1 1 -6.741801e-11 158.0677 650.0573)" class="st0" width="116.4" height="33"/>
		<circle class="st0" cx="400.6" cy="293.7" r="4.1"/>
	</g>
</g>
<ellipse class="st1" cx="310.2" cy="200" rx="195.5" ry="196.5"/>
</svg>
