<?xml version="1.0" encoding="utf-8"?>
<!-- Generator: Adobe Illustrator 21.1.0, SVG Export Plug-In . SVG Version: 6.00 Build 0)  -->
<svg version="1.1" id="Salirconamigos" xmlns="http://www.w3.org/2000/svg" xmlns:xlink="http://www.w3.org/1999/xlink" x="0px"
	 y="0px" viewBox="0 0 400 400" style="enable-background:new 0 0 400 400;display:none;" xml:space="preserve">
<style type="text/css">
	.st0{fill:none;stroke:#FFFFFF;stroke-width:5.6244;stroke-linecap:round;stroke-linejoin:round;stroke-miterlimit:10;}
	.st1{fill:none;stroke:#FFFFFF;stroke-width:8;stroke-miterlimit:10;}
</style>
<g style="display:inline;">
	<path class="st0" d="M194.7,194.6"/>
	<path class="st0" d="M207,173.8l-3.2-7.1c-3.5-7.7-10.6-15.9-11-24.3l0-99.9c0-1.6-1.3-2.9-2.9-2.9h-34.9c-1.6,0-2.9,1.3-2.9,2.9
		l0,99.9c-0.4,8.4-7.5,16.6-11,24.2l-7.3,16c-0.4,0.9-0.8,1.9-1.1,2.9l-1.1,5.7"/>
	<path class="st0" d="M131.6,306.1v42.8c0,6.4,5.2,11.6,11.6,11.6h58.3c6.4,0,11.6-5.2,11.6-11.6V210"/>
	<line class="st0" x1="152.6" y1="207.6" x2="213.1" y2="207.6"/>
	<line class="st0" x1="132.6" y1="324.8" x2="213.1" y2="324.8"/>
	<line class="st0" x1="151.9" y1="54.8" x2="192.7" y2="54.8"/>
	<line class="st0" x1="151.9" y1="85.4" x2="192.7" y2="85.4"/>
	<path class="st0" d="M138.3,219.8h-26.7c-7.9,0-14.4-6.4-14.4-14.4v0c0-7.9,6.4-14.4,14.4-14.4h26.7c7.9,0,14.4,6.4,14.4,14.4v0
		C152.7,213.4,146.3,219.8,138.3,219.8z"/>
	<path class="st0" d="M152.7,248.5h-41c-7.9,0-14.4-6.4-14.4-14.4v0c0-7.9,6.4-14.4,14.4-14.4h41c7.9,0,14.4,6.4,14.4,14.4v0
		C167.1,242.1,160.6,248.5,152.7,248.5z"/>
	<path class="st0" d="M140.4,277.2h-28.7c-7.9,0-14.4-6.4-14.4-14.4v0c0-7.9,6.4-14.4,14.4-14.4h28.7c7.9,0,14.4,6.4,14.4,14.4v0
		C154.7,270.8,148.3,277.2,140.4,277.2z"/>
	<path class="st0" d="M131.5,305.9h-21.1c-7.2,0-13-5.8-13-13v-2.7c0-7.2,5.8-13,13-13h21.1c7.2,0,13,5.8,13,13v2.7
		C144.5,300.1,138.7,305.9,131.5,305.9z"/>
	<path class="st0" d="M254.6,245.5h-2.2c-21.5,0-38.8-17.4-38.8-38.8v0h-23.7c-13,0-23.6-10.6-23.6-23.6v0c0-3.4,2.7-6.1,6.1-6.1
		h58.4c21.7,0,39.3,17.6,39.3,39.3v50.6c0,21.7-17.6,39.3-39.3,39.3h-12"/>
	
		<rect x="228.4" y="229.5" transform="matrix(-6.741801e-11 -1 1 -6.741801e-11 40.5678 532.5573)" class="st0" width="116.4" height="33"/>
	<circle class="st0" cx="283.1" cy="293.7" r="4.1"/>
</g>
<ellipse style="display:inline;fill:none;stroke:#FFFFFF;stroke-width:8;stroke-miterlimit:10;" cx="200.2" cy="200" rx="195.5" ry="196.5"/>
</svg>
