<?xml version="1.0" encoding="utf-8"?>
<!-- Generator: Adobe Illustrator 21.1.0, SVG Export Plug-In . SVG Version: 6.00 Build 0)  -->
<svg version="1.1" id="Teatro" xmlns="http://www.w3.org/2000/svg" xmlns:xlink="http://www.w3.org/1999/xlink" x="0px" y="0px"
	 viewBox="0 0 600 400" style="enable-background:new 0 0 600 400;" xml:space="preserve">
<style type="text/css">
	.st0{fill:none;stroke:#FFFFFF;stroke-width:5.6244;stroke-linecap:round;stroke-linejoin:round;stroke-miterlimit:10;}
	.st1{fill:none;stroke:#FFFFFF;stroke-width:8;stroke-miterlimit:10;}
</style>
<g>
	<path class="st0" d="M267.4,125.5l5.2-45.5c1.1-9.4,8.9-16.5,18.4-16.7l18.4-0.4c31.6-0.7,63.2,2.9,93.9,10.7l17.8,4.5
		c9.2,2.3,15.2,11.1,14.1,20.4l-12.8,111.7c-5.1,44.8-45.6,76.9-90.5,71.8l0,0c-0.4,0-0.9-0.1-1.3-0.2"/>
	<path class="st0" d="M318.4,209.5c4.1-7.2,12.3-11.6,21-10.5c10.3,1.3,17.9,9.9,18.3,19.9c0.1,1.9-1.6,3.4-3.5,3.2l-33.6-4.3"/>
	<path class="st0" d="M269.2,346.6L269.2,346.6c-43.7,11.3-88.4-14.8-99.7-58.4l-28.2-108.9c-2.4-9.1,2.4-18.6,11.1-22.2l17-7
		c29.3-12,60-20,91.5-23.7l18.3-2.2c9.4-1.1,18.1,4.9,20.5,14l28.2,108.9C339.3,290.8,313,335.3,269.2,346.6z"/>
	<path class="st0" d="M232.9,275.5c-1.9,0.5-2.9,2.5-2.1,4.3c4.2,9.1,14.4,14.2,24.4,11.6c10-2.6,16.5-12,15.7-22
		c-0.2-1.9-2-3.2-3.9-2.8L232.9,275.5z"/>
	<path class="st0" d="M205.6,232.5c-4.1-6.5-2.1-15.1,4.4-19.1c6.5-4.1,15.1-2.1,19.1,4.4"/>
	<path class="st0" d="M311.3,152.5c-1.4-7.5,3.5-14.8,11.1-16.2s14.8,3.5,16.2,11.1"/>
	<path class="st0" d="M379.8,160.6c3.1-7,0-15.2-7-18.4c-7-3.1-15.2,0-18.4,7"/>
	<path class="st0" d="M272.4,215.2c0.4-7.7-5.5-14.2-13.2-14.6c-7.7-0.4-14.2,5.5-14.6,13.2"/>
</g>
<ellipse class="st1" cx="300" cy="200" rx="195.5" ry="196.5"/>
</svg>
