<?xml version="1.0" encoding="utf-8"?>
<!-- Generator: Adobe Illustrator 21.1.0, SVG Export Plug-In . SVG Version: 6.00 Build 0)  -->
<svg version="1.1" id="Animacion" xmlns="http://www.w3.org/2000/svg" xmlns:xlink="http://www.w3.org/1999/xlink" x="0px" y="0px"
	 viewBox="0 0 400 400" style="enable-background:new 0 0 400 400;display:none;" xml:space="preserve">
<style type="text/css">
	.st0{fill:none;stroke:#FFFFFF;stroke-width:5.6244;stroke-linecap:round;stroke-linejoin:round;stroke-miterlimit:10;}
	.st1{fill:none;stroke:#FFFFFF;stroke-width:8;stroke-miterlimit:10;}
</style>
<g style="display:inline;">
	<path class="st0" d="M304.4,194.8c-19,0.2-35-15.6-35.2-34.6c-0.2-19.6,15.3-35.6,34.8-35.8c19.3-0.2,35.2,15.5,35.5,34.8
		C339.6,178.7,323.9,194.7,304.4,194.8z"/>
	<path class="st0" d="M85.4,130.6c3.6,0.1,6.9,3.4,7,6.9c0,3.6-3.5,7-7.3,7c-3.7,0-6.9-3.2-6.9-6.8
		C78.2,133.8,81.6,130.5,85.4,130.6z"/>
	<path class="st0" d="M186.9,226.6c3.9-0.1,7,3.1,7.1,7c0,3.6-3.2,6.9-6.8,7c-3.6,0.1-6.9-3.1-7.1-6.7
		C179.9,229.9,182.9,226.7,186.9,226.6z"/>
	<path class="st0" d="M186.7,267.7c-3.9,0-7.1-3.2-7.1-7.1c0.1-3.7,3.3-6.8,7-6.8c3.9,0,7.1,3.3,7,7.2
		C193.6,264.8,190.6,267.8,186.7,267.7z"/>
	<path class="st0" d="M71.2,154.3c3.7-0.1,6.9,3,7,6.7c0.1,4-3,7.2-6.9,7.2c-3.8,0-6.9-3.1-6.9-6.9
		C64.4,157.5,67.4,154.4,71.2,154.3z"/>
	<path class="st0" d="M186.9,198.7c3.7-0.1,6.9,3,7.1,6.7c0.2,3.9-2.9,7.2-6.8,7.2c-3.9,0.1-6.9-2.8-7.1-6.6
		C179.9,202.1,183,198.8,186.9,198.7z"/>
	<path class="st0" d="M241.5,221.3c0-3.9,2.9-6.9,6.7-6.9c4,0,7,3.1,7,7.1c-0.1,3.8-3.1,6.8-6.9,6.7
		C244.3,228.1,241.5,225.2,241.5,221.3z"/>
	<path class="st0" d="M235.7,241.2c-0.1,3.8-3.1,6.8-6.9,6.6c-3.9-0.1-6.8-3-6.8-6.9c0-3.9,3.3-7.1,7.1-6.9
		C232.9,234.2,235.8,237.3,235.7,241.2z"/>
	<path class="st0" d="M209.6,253.9c3.9,0.1,6.8,3,6.8,6.9c-0.1,3.8-3.2,6.8-7,6.7c-3.8-0.1-6.8-3.1-6.8-6.9
		C202.7,256.7,205.7,253.8,209.6,253.9z"/>
	<path class="st0" d="M159.9,124.5c3.7,0.1,6.6,3.3,6.5,7.1c-0.1,3.8-3.2,6.6-7.1,6.5c-3.7-0.1-6.6-3.3-6.5-7.1
		C152.9,127.3,156,124.4,159.9,124.5z"/>
	<path class="st0" d="M177.8,145.2c4,0.1,6.8,3,6.7,6.9c-0.1,3.9-3.2,6.7-7.1,6.6c-3.6-0.1-6.5-3.1-6.5-6.8
		C170.9,148.1,174,145.1,177.8,145.2z"/>
	<path class="st0" d="M134.9,126.7c-3.7-0.1-6.9-3.2-6.9-6.9c0-3.8,3.1-6.9,6.8-7c3.6,0,6.9,3.2,6.9,6.9
		C141.6,123.7,138.6,126.8,134.9,126.7z"/>
	<path class="st0" d="M267.9,194.7c3.8,0.3,6.7,3.6,6.3,7.3c-0.3,3.7-3.8,6.6-7.4,6.2c-3.8-0.4-6.4-3.7-6-7.5
		C261.1,197.1,264.3,194.4,267.9,194.7z"/>
	<path class="st0" d="M68,181.7c3.7,0,6.5,2.9,6.5,6.7c0,3.8-3.1,6.9-6.8,6.9c-3.7,0-6.8-3.1-6.7-7C61,184.6,64.1,181.7,68,181.7z"
		/>
	<path class="st0" d="M114.3,121.3c0.1,3.9-3.1,7.2-6.9,7.2c-3.5,0-6.4-2.7-6.6-6.2c-0.2-3.7,2.9-7,6.6-7.1
		C111.2,115,114.2,117.6,114.3,121.3z"/>
	<path class="st0" d="M196.8,280.2c0,3.8-3,6.9-6.7,6.9c-3.8,0-6.8-3.1-6.7-6.9c0.1-3.7,2.9-6.5,6.6-6.6
		C193.7,273.5,196.8,276.4,196.8,280.2z"/>
	<path class="st0" d="M179.7,177.9c0.1-3.8,3.1-6.6,7-6.5c3.7,0.1,6.6,3.3,6.5,7.1c-0.1,3.6-3.2,6.4-6.9,6.3
		C182.3,184.7,179.6,181.9,179.7,177.9z"/>
</g>
<ellipse style="display:inline;fill:none;stroke:#FFFFFF;stroke-width:8;stroke-miterlimit:10;" cx="200.2" cy="200" rx="195.5" ry="196.5"/>
</svg>
