<?xml version="1.0" encoding="utf-8"?>
<!-- Generator: Adobe Illustrator 21.1.0, SVG Export Plug-In . SVG Version: 6.00 Build 0)  -->
<svg version="1.1" id="DiseñodePersonajes" xmlns="http://www.w3.org/2000/svg" xmlns:xlink="http://www.w3.org/1999/xlink"
	 x="0px" y="0px" viewBox="0 0 600 400" style="enable-background:new 0 0 600 400;" xml:space="preserve">
<style type="text/css">
	.st0{fill:none;stroke:#FFFFFF;stroke-width:5.6244;stroke-linecap:round;stroke-linejoin:round;stroke-miterlimit:10;}
	.st1{fill:none;stroke:#FFFFFF;stroke-width:3;stroke-linecap:round;stroke-linejoin:round;stroke-miterlimit:10;}
	.st2{fill:none;stroke:#FFFFFF;stroke-width:8;stroke-miterlimit:10;}
</style>
<rect x="250.6" y="206.2" class="st0" width="90.5" height="90.5"/>
<g>
	<line class="st0" x1="283.5" y1="206.2" x2="283.5" y2="191.1"/>
	<line class="st0" x1="307.2" y1="191.1" x2="307.2" y2="206.2"/>
</g>
<polyline class="st0" points="356.2,136 356.2,191.1 234.4,191.1 234.4,100.6 356.2,100.6 "/>
<path class="st0" d="M283.5,164.2c0,6.5,5.3,11.9,11.9,11.9s11.9-5.3,11.9-11.9"/>
<g>
	<circle class="st1" cx="257.6" cy="151.3" r="5.9"/>
	<circle class="st1" cx="333" cy="151.3" r="5.9"/>
</g>
<path class="st0" d="M271.6,100.6c0-13.1,10.6-23.7,23.7-23.7S319,87.5,319,100.6"/>
<line class="st0" x1="295.3" y1="76.4" x2="295.3" y2="63.4"/>
<circle class="st1" cx="295.3" cy="56.4" r="5.9"/>
<line class="st0" x1="323.3" y1="297.3" x2="323.3" y2="335"/>
<line class="st0" x1="311.5" y1="335" x2="311.5" y2="297.3"/>
<path class="st0" d="M332.5,349.5c0-8.3-6.8-15.1-15.1-15.1c-8.3,0-15.1,6.8-15.1,15.1H332.5z"/>
<line class="st0" x1="280.2" y1="297.3" x2="280.2" y2="335"/>
<line class="st0" x1="268.4" y1="335" x2="268.4" y2="297.3"/>
<path class="st0" d="M289.4,349.5c0-8.3-6.8-15.1-15.1-15.1c-8.3,0-15.1,6.8-15.1,15.1H289.4z"/>
<path class="st0" d="M342.1,213.8c5.4,0,9.7,4.3,9.7,9.7c0,5.4-4.3,9.7-9.7,9.7"/>
<path class="st1" d="M372.4,262.5l4.4,6c-4.4,5.4-4.3,14.3,0.9,21.4l6.1-4.4c-3.1-4.3-3-9.8,0.4-12.3c3.4-2.4,8.7-0.9,11.8,3.4
	l6.1-4.4c-5.1-7.1-13.6-10.1-20.1-7.5l-4.4-6"/>
<polygon class="st0" points="382.5,255.2 366.8,266.6 354.8,244.6 365.3,237 "/>
<line class="st1" x1="352.2" y1="224.4" x2="362.7" y2="238.9"/>
<line class="st1" x1="357.5" y1="242.7" x2="348.9" y2="230.9"/>
<path class="st0" d="M250.3,213.8c-5.4,0-9.7,4.3-9.7,9.7c0,5.4,4.3,9.7,9.7,9.7"/>
<path class="st1" d="M219.9,262.5l-4.4,6c4.4,5.4,4.3,14.3-0.9,21.4l-6.1-4.4c3.1-4.3,3-9.8-0.4-12.3c-3.4-2.4-8.7-0.9-11.8,3.4
	l-6.1-4.4c5.1-7.1,13.6-10.1,20.1-7.5l4.4-6"/>
<polygon class="st0" points="209.9,255.2 225.6,266.6 237.5,244.6 227.1,237 "/>
<line class="st1" x1="240.2" y1="224.4" x2="229.7" y2="238.9"/>
<line class="st1" x1="234.9" y1="242.7" x2="243.5" y2="230.9"/>
<g>
	<path class="st1" d="M356.4,134.4c2.1,0.7,4.2,1.4,6.3,2.1c3.3,1.1,6.5,2.2,9.8,3.3c1.4,0.5,2.2,1,3.3,2c1.1,1.1,2.3,2.1,3.4,3.2
		c1.8,1.7,3.7,3.5,5.5,5.2c2.3,2.1,4.5,4.2,6.8,6.4c2.4,2.3,4.9,4.6,7.3,6.9c2.5,2.4,5,4.8,7.6,7.1c2.5,2.3,4.9,4.6,7.4,6.9
		c2.2,2,4.3,4.1,6.5,6.1c1.6,1.5,3.3,3.1,4.9,4.6c1.1,1.1,2.3,2.2,3.4,3.3c1.5,1.5,2.2,4,0.8,5.8c-1.2,1.5-2.6,2.9-3.9,4.4
		c-1.7,1.9-4.9,6-7.8,3.3c-0.6-0.6-1.3-1.2-1.9-1.8c-1.3-1.2-2.6-2.4-3.9-3.7c-1.9-1.8-3.9-3.7-5.8-5.5c-2.3-2.2-4.6-4.4-6.9-6.5
		c-2.5-2.4-4.9-4.7-7.4-7.1c-2.5-2.4-5-4.8-7.5-7.2c-2.4-2.3-4.8-4.5-7.1-6.8c-2.1-2-4.2-4-6.3-6c-1.5-1.5-3.1-2.9-4.6-4.4
		c-0.9-0.9-1.9-1.7-2.7-2.6c-0.7-0.8-0.9-1.7-1.3-2.7c-0.5-1.5-1.1-3-1.6-4.5c-1.2-3.2-2.3-6.4-3.4-9.7
		C356.9,135.9,356.6,135.2,356.4,134.4z"/>
	<line class="st1" x1="425.7" y1="188.9" x2="413.9" y2="201.4"/>
	<line class="st1" x1="422.3" y1="185.7" x2="410.5" y2="198.2"/>
	<line class="st1" x1="375.9" y1="142.3" x2="364.7" y2="154.2"/>
	<line class="st1" x1="362.4" y1="136.5" x2="358.6" y2="140.7"/>
</g>
<ellipse class="st2" cx="310.2" cy="200" rx="195.5" ry="196.5"/>
</svg>
