<?xml version="1.0" encoding="utf-8"?>
<!-- Generator: Adobe Illustrator 21.1.0, SVG Export Plug-In . SVG Version: 6.00 Build 0)  -->
<svg version="1.1" id="Diseñodeinterfaz" xmlns="http://www.w3.org/2000/svg" xmlns:xlink="http://www.w3.org/1999/xlink" x="0px"
	 y="0px" viewBox="0 0 600 400" style="enable-background:new 0 0 600 400;" xml:space="preserve">
<style type="text/css">
	.st0{fill:none;stroke:#FFFFFF;stroke-width:5.6244;stroke-linecap:round;stroke-linejoin:round;stroke-miterlimit:10;}
	.st1{fill:none;stroke:#FFFFFF;stroke-width:8;stroke-miterlimit:10;}
</style>
<g>
	<path class="st0" d="M179.1,100.9c87.5,0,174.7,0,262.2,0c0,66,0,131.9,0,198.1c-87.3,0-174.7,0-262.2,0
		C179.1,233,179.1,167.1,179.1,100.9z"/>
	<path class="st0" d="M199.4,190.9c0-18.2,0-36.4,0-54.8c21.4,0,42.7,0,64.2,0c0,18.2,0,36.4,0,54.8
		C242.2,190.9,220.9,190.9,199.4,190.9z"/>
	<path class="st0" d="M278.2,190.9c0-18.3,0-36.4,0-54.8c21.4,0,42.7,0,64.2,0c0,18.3,0,36.4,0,54.8
		C321,190.9,299.7,190.9,278.2,190.9z"/>
	<path class="st0" d="M421,191c-21.4,0-42.6,0-64.1,0c0-18.3,0-36.6,0-55c21.4,0,42.6,0,64.1,0C421,154.3,421,172.5,421,191z"/>
	<path class="st0" d="M199.5,216c21.2,0,42.5,0,64.1,0"/>
	<path class="st0" d="M199.5,248c21.2,0,42.5,0,64.1,0"/>
	<path class="st0" d="M199.4,233.4c18.3,0,36.4,0,54.8,0"/>
	<path class="st0" d="M199.4,265.7c15.1,0,30.2,0,45.6,0"/>
	<ellipse class="st1" cx="310.2" cy="200" rx="195.5" ry="196.5"/>
	<path class="st0" d="M279.5,216c21.2,0,42.5,0,64.1,0"/>
	<path class="st0" d="M279.5,248c21.2,0,42.5,0,64.1,0"/>
	<path class="st0" d="M279.4,233.4c18.3,0,36.4,0,54.8,0"/>
	<path class="st0" d="M279.4,265.7c15.1,0,30.2,0,45.6,0"/>
	<path class="st0" d="M359.5,216c21.2,0,42.5,0,64.1,0"/>
	<path class="st0" d="M359.5,248c21.2,0,42.5,0,64.1,0"/>
	<path class="st0" d="M359.4,233.4c18.3,0,36.4,0,54.8,0"/>
	<path class="st0" d="M359.4,265.7c15.1,0,30.2,0,45.6,0"/>
</g>
</svg>
