<?xml version="1.0" encoding="utf-8"?>
<!-- Generator: Adobe Illustrator 21.1.0, SVG Export Plug-In . SVG Version: 6.00 Build 0)  -->
<svg version="1.1" id="DiseñodePersonajes" xmlns="http://www.w3.org/2000/svg" xmlns:xlink="http://www.w3.org/1999/xlink"
	 x="0px" y="0px" viewBox="0 0 400 400" style="enable-background:new 0 0 400 400;display:none;" xml:space="preserve">
<style type="text/css">
	.st0{fill:none;stroke:#FFFFFF;stroke-width:5.6244;stroke-linecap:round;stroke-linejoin:round;stroke-miterlimit:10;}
	.st1{fill:none;stroke:#FFFFFF;stroke-width:3;stroke-linecap:round;stroke-linejoin:round;stroke-miterlimit:10;}
	.st2{fill:none;stroke:#FFFFFF;stroke-width:8;stroke-miterlimit:10;}
</style>
<rect x="140.6" y="206.2" style="display:inline;fill:none;stroke:#FFFFFF;stroke-width:5.6244;stroke-linecap:round;stroke-linejoin:round;stroke-miterlimit:10;" width="90.5" height="90.5"/>
<g style="display:inline;">
	<line class="st0" x1="173.5" y1="206.2" x2="173.5" y2="191.1"/>
	<line class="st0" x1="197.2" y1="191.1" x2="197.2" y2="206.2"/>
</g>
<polyline style="display:inline;fill:none;stroke:#FFFFFF;stroke-width:5.6244;stroke-linecap:round;stroke-linejoin:round;stroke-miterlimit:10;" points="
	246.2,136 246.2,191.1 124.4,191.1 124.4,100.6 246.2,100.6 "/>
<path style="display:inline;fill:none;stroke:#FFFFFF;stroke-width:5.6244;stroke-linecap:round;stroke-linejoin:round;stroke-miterlimit:10;" d="
	M173.5,164.2c0,6.5,5.3,11.9,11.9,11.9s11.9-5.3,11.9-11.9"/>
<g style="display:inline;">
	<circle class="st1" cx="147.6" cy="151.3" r="5.9"/>
	<circle class="st1" cx="223" cy="151.3" r="5.9"/>
</g>
<path style="display:inline;fill:none;stroke:#FFFFFF;stroke-width:5.6244;stroke-linecap:round;stroke-linejoin:round;stroke-miterlimit:10;" d="
	M161.6,100.6c0-13.1,10.6-23.7,23.7-23.7c13.1,0,23.7,10.6,23.7,23.7"/>
<line style="display:inline;fill:none;stroke:#FFFFFF;stroke-width:5.6244;stroke-linecap:round;stroke-linejoin:round;stroke-miterlimit:10;" x1="185.3" y1="76.4" x2="185.3" y2="63.4"/>
<circle style="display:inline;fill:none;stroke:#FFFFFF;stroke-width:3;stroke-linecap:round;stroke-linejoin:round;stroke-miterlimit:10;" cx="185.3" cy="56.4" r="5.9"/>
<line style="display:inline;fill:none;stroke:#FFFFFF;stroke-width:5.6244;stroke-linecap:round;stroke-linejoin:round;stroke-miterlimit:10;" x1="213.3" y1="297.3" x2="213.3" y2="335"/>
<line style="display:inline;fill:none;stroke:#FFFFFF;stroke-width:5.6244;stroke-linecap:round;stroke-linejoin:round;stroke-miterlimit:10;" x1="201.5" y1="335" x2="201.5" y2="297.3"/>
<path style="display:inline;fill:none;stroke:#FFFFFF;stroke-width:5.6244;stroke-linecap:round;stroke-linejoin:round;stroke-miterlimit:10;" d="
	M222.5,349.5c0-8.3-6.8-15.1-15.1-15.1s-15.1,6.8-15.1,15.1H222.5z"/>
<line style="display:inline;fill:none;stroke:#FFFFFF;stroke-width:5.6244;stroke-linecap:round;stroke-linejoin:round;stroke-miterlimit:10;" x1="170.2" y1="297.3" x2="170.2" y2="335"/>
<line style="display:inline;fill:none;stroke:#FFFFFF;stroke-width:5.6244;stroke-linecap:round;stroke-linejoin:round;stroke-miterlimit:10;" x1="158.4" y1="335" x2="158.4" y2="297.3"/>
<path style="display:inline;fill:none;stroke:#FFFFFF;stroke-width:5.6244;stroke-linecap:round;stroke-linejoin:round;stroke-miterlimit:10;" d="
	M179.4,349.5c0-8.3-6.8-15.1-15.1-15.1s-15.1,6.8-15.1,15.1H179.4z"/>
<path style="display:inline;fill:none;stroke:#FFFFFF;stroke-width:5.6244;stroke-linecap:round;stroke-linejoin:round;stroke-miterlimit:10;" d="
	M232.1,213.8c5.4,0,9.7,4.3,9.7,9.7c0,5.4-4.3,9.7-9.7,9.7"/>
<path style="display:inline;fill:none;stroke:#FFFFFF;stroke-width:3;stroke-linecap:round;stroke-linejoin:round;stroke-miterlimit:10;" d="
	M262.4,262.5l4.4,6c-4.4,5.4-4.3,14.3,0.9,21.4l6.1-4.4c-3.1-4.3-3-9.8,0.4-12.3c3.4-2.4,8.7-0.9,11.8,3.4l6.1-4.4
	c-5.1-7.1-13.6-10.1-20.1-7.5l-4.4-6"/>
<polygon style="display:inline;fill:none;stroke:#FFFFFF;stroke-width:5.6244;stroke-linecap:round;stroke-linejoin:round;stroke-miterlimit:10;" points="
	272.5,255.2 256.8,266.6 244.8,244.6 255.3,237 "/>
<line style="display:inline;fill:none;stroke:#FFFFFF;stroke-width:3;stroke-linecap:round;stroke-linejoin:round;stroke-miterlimit:10;" x1="242.2" y1="224.4" x2="252.7" y2="238.9"/>
<line style="display:inline;fill:none;stroke:#FFFFFF;stroke-width:3;stroke-linecap:round;stroke-linejoin:round;stroke-miterlimit:10;" x1="247.5" y1="242.7" x2="238.9" y2="230.9"/>
<path style="display:inline;fill:none;stroke:#FFFFFF;stroke-width:5.6244;stroke-linecap:round;stroke-linejoin:round;stroke-miterlimit:10;" d="
	M140.3,213.8c-5.4,0-9.7,4.3-9.7,9.7c0,5.4,4.3,9.7,9.7,9.7"/>
<path style="display:inline;fill:none;stroke:#FFFFFF;stroke-width:3;stroke-linecap:round;stroke-linejoin:round;stroke-miterlimit:10;" d="
	M109.9,262.5l-4.4,6c4.4,5.4,4.3,14.3-0.9,21.4l-6.1-4.4c3.1-4.3,3-9.8-0.4-12.3c-3.4-2.4-8.7-0.9-11.8,3.4l-6.1-4.4
	c5.1-7.1,13.6-10.1,20.1-7.5l4.4-6"/>
<polygon style="display:inline;fill:none;stroke:#FFFFFF;stroke-width:5.6244;stroke-linecap:round;stroke-linejoin:round;stroke-miterlimit:10;" points="
	99.9,255.2 115.6,266.6 127.5,244.6 117.1,237 "/>
<line style="display:inline;fill:none;stroke:#FFFFFF;stroke-width:3;stroke-linecap:round;stroke-linejoin:round;stroke-miterlimit:10;" x1="130.2" y1="224.4" x2="119.7" y2="238.9"/>
<line style="display:inline;fill:none;stroke:#FFFFFF;stroke-width:3;stroke-linecap:round;stroke-linejoin:round;stroke-miterlimit:10;" x1="124.9" y1="242.7" x2="133.5" y2="230.9"/>
<g style="display:inline;">
	<path class="st1" d="M246.4,134.4c2.1,0.7,4.2,1.4,6.3,2.1c3.3,1.1,6.5,2.2,9.8,3.3c1.4,0.5,2.2,1,3.3,2c1.1,1.1,2.3,2.1,3.4,3.2
		c1.8,1.7,3.7,3.5,5.5,5.2c2.3,2.1,4.5,4.2,6.8,6.4c2.4,2.3,4.9,4.6,7.3,6.9c2.5,2.4,5,4.8,7.6,7.1c2.5,2.3,4.9,4.6,7.4,6.9
		c2.2,2,4.3,4.1,6.5,6.1c1.6,1.5,3.3,3.1,4.9,4.6c1.1,1.1,2.3,2.2,3.4,3.3c1.5,1.5,2.2,4,0.8,5.8c-1.2,1.5-2.6,2.9-3.9,4.4
		c-1.7,1.9-4.9,6-7.8,3.3c-0.6-0.6-1.3-1.2-1.9-1.8c-1.3-1.2-2.6-2.4-3.9-3.7c-1.9-1.8-3.9-3.7-5.8-5.5c-2.3-2.2-4.6-4.4-6.9-6.5
		c-2.5-2.4-4.9-4.7-7.4-7.1c-2.5-2.4-5-4.8-7.5-7.2c-2.4-2.3-4.8-4.5-7.1-6.8c-2.1-2-4.2-4-6.3-6c-1.5-1.5-3.1-2.9-4.6-4.4
		c-0.9-0.9-1.9-1.7-2.7-2.6c-0.7-0.8-0.9-1.7-1.3-2.7c-0.5-1.5-1.1-3-1.6-4.5c-1.2-3.2-2.3-6.4-3.4-9.7
		C246.9,135.9,246.6,135.2,246.4,134.4z"/>
	<line class="st1" x1="315.7" y1="188.9" x2="303.9" y2="201.4"/>
	<line class="st1" x1="312.3" y1="185.7" x2="300.5" y2="198.2"/>
	<line class="st1" x1="265.9" y1="142.3" x2="254.7" y2="154.2"/>
	<line class="st1" x1="252.4" y1="136.5" x2="248.6" y2="140.7"/>
</g>
<ellipse style="display:inline;fill:none;stroke:#FFFFFF;stroke-width:8;stroke-miterlimit:10;" cx="200.2" cy="200" rx="195.5" ry="196.5"/>
</svg>
