<?xml version="1.0" encoding="utf-8"?>
<!-- Generator: Adobe Illustrator 21.1.0, SVG Export Plug-In . SVG Version: 6.00 Build 0)  -->
<svg version="1.1" id="Diseñodeinterfaz" xmlns="http://www.w3.org/2000/svg" xmlns:xlink="http://www.w3.org/1999/xlink" x="0px"
	 y="0px" viewBox="0 0 400 400" style="enable-background:new 0 0 400 400;display:none;" xml:space="preserve">
<style type="text/css">
	.st0{fill:none;stroke:#FFFFFF;stroke-width:5.6244;stroke-linecap:round;stroke-linejoin:round;stroke-miterlimit:10;}
	.st1{fill:none;stroke:#FFFFFF;stroke-width:8;stroke-miterlimit:10;}
</style>
<g style="display:inline;">
	<path class="st0" d="M69.1,100.9c87.5,0,174.7,0,262.2,0c0,66,0,131.9,0,198.1c-87.3,0-174.7,0-262.2,0
		C69.1,233,69.1,167.1,69.1,100.9z"/>
	<path class="st0" d="M89.4,190.9c0-18.2,0-36.4,0-54.8c21.4,0,42.7,0,64.2,0c0,18.2,0,36.4,0,54.8
		C132.2,190.9,110.9,190.9,89.4,190.9z"/>
	<path class="st0" d="M168.2,190.9c0-18.3,0-36.4,0-54.8c21.4,0,42.7,0,64.2,0c0,18.3,0,36.4,0,54.8
		C211,190.9,189.7,190.9,168.2,190.9z"/>
	<path class="st0" d="M311,191c-21.4,0-42.6,0-64.1,0c0-18.3,0-36.6,0-55c21.4,0,42.6,0,64.1,0C311,154.3,311,172.5,311,191z"/>
	<path class="st0" d="M89.5,216c21.2,0,42.5,0,64.1,0"/>
	<path class="st0" d="M89.5,248c21.2,0,42.5,0,64.1,0"/>
	<path class="st0" d="M89.4,233.4c18.3,0,36.4,0,54.8,0"/>
	<path class="st0" d="M89.4,265.7c15.1,0,30.2,0,45.6,0"/>
	<ellipse class="st1" cx="200.2" cy="200" rx="195.5" ry="196.5"/>
	<path class="st0" d="M169.5,216c21.2,0,42.5,0,64.1,0"/>
	<path class="st0" d="M169.5,248c21.2,0,42.5,0,64.1,0"/>
	<path class="st0" d="M169.4,233.4c18.3,0,36.4,0,54.8,0"/>
	<path class="st0" d="M169.4,265.7c15.1,0,30.2,0,45.6,0"/>
	<path class="st0" d="M249.5,216c21.2,0,42.5,0,64.1,0"/>
	<path class="st0" d="M249.5,248c21.2,0,42.5,0,64.1,0"/>
	<path class="st0" d="M249.4,233.4c18.3,0,36.4,0,54.8,0"/>
	<path class="st0" d="M249.4,265.7c15.1,0,30.2,0,45.6,0"/>
</g>
</svg>
