<?xml version="1.0" encoding="utf-8"?>
<!-- Generator: Adobe Illustrator 21.1.0, SVG Export Plug-In . SVG Version: 6.00 Build 0)  -->
<svg version="1.1" id="Edicion" xmlns="http://www.w3.org/2000/svg" xmlns:xlink="http://www.w3.org/1999/xlink" x="0px" y="0px"
	 viewBox="0 0 600 400" style="enable-background:new 0 0 600 400;" xml:space="preserve">
<style type="text/css">
	.st0{fill:none;stroke:#FFFFFF;stroke-width:5.6244;stroke-linecap:round;stroke-linejoin:round;stroke-miterlimit:10;}
	.st1{fill:none;stroke:#FFFFFF;stroke-width:8;stroke-miterlimit:10;}
</style>
<g>
	<path class="st0" d="M408.6,173.6c4.9,12.4,7.5,26,7.5,40.1c0,60.9-49.4,110.4-110.4,110.4s-110.4-49.4-110.4-110.4
		c0-58.8,45.9-106.8,103.9-110.2"/>
	<g>
		<path class="st0" d="M261.3,253.8c1.9-4.4,3.7-8.9,5.6-13.3c2.9-6.8,5.8-13.7,8.6-20.5c1.2-2.9,2.5-4.6,4.8-6.8
			c2.5-2.3,4.9-4.5,7.4-6.8c4-3.7,8.1-7.4,12.1-11.1c4.9-4.5,9.8-9,14.7-13.5c5.3-4.9,10.6-9.8,16-14.6c5.5-5.1,11-10.1,16.5-15.2
			c5.4-4.9,10.7-9.8,16.1-14.8c4.7-4.3,9.4-8.6,14.1-13c3.6-3.3,7.2-6.6,10.8-9.9c2.5-2.3,5-4.6,7.6-6.9c3.4-3.1,8.9-4.2,12.6-0.8
			c3.1,2.9,5.9,6,8.8,9c3.7,4,12.2,11.5,5.8,17.4c-1.4,1.3-2.8,2.6-4.2,3.8c-2.8,2.6-5.6,5.1-8.5,7.7c-4.3,3.9-8.5,7.7-12.8,11.6
			c-5,4.6-10.1,9.2-15.1,13.7c-5.4,4.9-10.9,9.9-16.3,14.8c-5.5,5-11.1,10.1-16.6,15.1c-5.2,4.8-10.5,9.5-15.7,14.3
			c-4.6,4.2-9.2,8.4-13.8,12.5c-3.4,3.1-6.8,6.2-10.2,9.3c-2,1.8-3.9,3.8-6,5.5c-1.8,1.4-3.9,1.8-6,2.3c-3.3,0.9-6.6,1.8-9.9,2.7
			c-7.1,2-14.2,3.9-21.3,5.8C264.6,252.9,262.9,253.3,261.3,253.8z"/>
		<line class="st0" x1="389.2" y1="113.3" x2="414.2" y2="140.5"/>
		<line class="st0" x1="381.8" y1="120" x2="406.9" y2="147.3"/>
		<line class="st0" x1="281.4" y1="213" x2="305.2" y2="238.9"/>
		<line class="st0" x1="266.7" y1="241" x2="275.1" y2="250"/>
	</g>
	<polyline class="st0" points="294.4,76 324.9,99 326.8,100.4 303.2,131.7 	"/>
</g>
<ellipse class="st1" cx="310.2" cy="200" rx="195.5" ry="196.5"/>
</svg>
