<?xml version="1.0" encoding="utf-8"?>
<!-- Generator: Adobe Illustrator 21.1.0, SVG Export Plug-In . SVG Version: 6.00 Build 0)  -->
<svg version="1.1" id="Fotografia" xmlns="http://www.w3.org/2000/svg" xmlns:xlink="http://www.w3.org/1999/xlink" x="0px" y="0px"
	 viewBox="0 0 600 400" style="enable-background:new 0 0 600 400;" xml:space="preserve">
<style type="text/css">
	.st0{fill:none;stroke:#FFFFFF;stroke-width:5.6244;stroke-linecap:round;stroke-linejoin:round;stroke-miterlimit:10;}
	.st1{fill:none;stroke:#FFFFFF;stroke-width:8;stroke-miterlimit:10;}
</style>
<g>
	<g>
		<path class="st0" d="M431.9,292.5H188.5c-3,0-5.4-2.4-5.4-5.4V141.4c0-3,2.4-5.4,5.4-5.4h243.5c3,0,5.4,2.4,5.4,5.4v145.7
			C437.3,290.1,434.9,292.5,431.9,292.5z"/>
		<g>
			<circle class="st0" cx="310.2" cy="214.2" r="60.5"/>
			<circle class="st0" cx="310.2" cy="214.2" r="41.5"/>
		</g>
	</g>
	<path class="st0" d="M414.7,135.7h-25.9c-2.2,0-3.9-1.8-3.9-3.9V123c0-2.2,1.8-3.9,3.9-3.9h25.9c2.2,0,3.9,1.8,3.9,3.9v8.8
		C418.6,134,416.8,135.7,414.7,135.7z"/>
	<path class="st0" d="M349.8,135.5h-79.2c-1.4,0-2.3-1.6-1.5-2.8l16.6-24.4c0.3-0.5,0.9-0.8,1.5-0.8h46c0.6,0,1.1,0.3,1.5,0.8
		l16.6,24.4C352,133.9,351.2,135.5,349.8,135.5z"/>
</g>
<ellipse class="st1" cx="310.2" cy="200" rx="195.5" ry="196.5"/>
</svg>
