<?xml version="1.0" encoding="utf-8"?>
<!-- Generator: Adobe Illustrator 21.1.0, SVG Export Plug-In . SVG Version: 6.00 Build 0)  -->
<svg version="1.1" id="Ilustracion" xmlns="http://www.w3.org/2000/svg" xmlns:xlink="http://www.w3.org/1999/xlink" x="0px"
	 y="0px" viewBox="0 0 600 400" style="enable-background:new 0 0 600 400;" xml:space="preserve">
<style type="text/css">
	.st0{fill:none;stroke:#FFFFFF;stroke-width:8;stroke-miterlimit:10;}
	.st1{fill:none;stroke:#FFFFFF;stroke-width:5.6244;stroke-linecap:round;stroke-linejoin:round;stroke-miterlimit:10;}
	.st2{fill:none;stroke:#FFFFFF;stroke-width:3;stroke-linecap:round;stroke-linejoin:round;stroke-miterlimit:10;}
</style>
<ellipse class="st0" cx="300" cy="200" rx="195.5" ry="196.5"/>
<path class="st1" d="M363.3,275.2H192.5c-11.1,0-20.1-9-20.1-20.1V144.9c0-11.1,9-20.1,20.1-20.1h170.8c11.1,0,20.1,9,20.1,20.1
	v110.3C383.4,266.2,374.4,275.2,363.3,275.2z"/>
<polyline class="st1" points="290,232.8 273.5,207.9 256.9,183.1 240.4,207.9 223.8,232.8 "/>
<polyline class="st1" points="327.3,232.8 313.7,212.4 300.2,192 286.6,212.4 281.5,220 "/>
<circle class="st1" cx="321.8" cy="178" r="10.2"/>
<path class="st2" d="M409.9,165.5c-1.1,2.3-2.1,4.6-3.2,6.9c-1.6,3.6-3.2,7.1-4.9,10.7c-0.7,1.5-0.9,2.6-0.9,4.3c0,1.8,0,3.5,0,5.3
	c0,2.9,0,5.8,0,8.6c0,3.5,0,7,0,10.5c0,3.8,0,7.6,0,11.4c0,3.9,0,7.9,0,11.8c0,3.8,0,7.7,0,11.5c0,3.4,0,6.7,0,10.1
	c0,2.6,0,5.1,0,7.7c0,1.8,0,3.6,0,5.4c0,2.4,1.5,5,4.2,5.2c2.2,0.2,4.4,0.2,6.7,0.2c2.9,0,8.8,0.6,8.8-3.9c0-1,0-2,0-3c0-2,0-4,0-6
	c0-3,0-6.1,0-9.1c0-3.6,0-7.2-0.1-10.8c0-3.9,0-7.8-0.1-11.7c0-3.9,0-7.9-0.1-11.8c0-3.7,0-7.5-0.1-11.2c0-3.3,0-6.6-0.1-9.8
	c0-2.4,0-4.8,0-7.3c0-1.4,0.1-2.9,0-4.3c-0.1-1.2-0.7-2.1-1.2-3.2c-0.8-1.6-1.7-3.2-2.5-4.8c-1.8-3.5-3.6-6.9-5.3-10.4
	C410.7,167.1,410.3,166.3,409.9,165.5z"/>
<line class="st2" x1="400.9" y1="265.3" x2="420.4" y2="265.3"/>
<line class="st2" x1="400.9" y1="260.1" x2="420.4" y2="260.1"/>
<line class="st2" x1="401.2" y1="187.8" x2="419.7" y2="187.9"/>
<line class="st2" x1="406.8" y1="172.2" x2="413.3" y2="172.2"/>
</svg>
