<?xml version="1.0" encoding="utf-8"?>
<!-- Generator: Adobe Illustrator 21.1.0, SVG Export Plug-In . SVG Version: 6.00 Build 0)  -->
<svg version="1.1" id="Ilustracion" xmlns="http://www.w3.org/2000/svg" xmlns:xlink="http://www.w3.org/1999/xlink" x="0px"
	 y="0px" viewBox="0 0 400 400" style="enable-background:new 0 0 400 400;display:none;" xml:space="preserve">
<style type="text/css">
	.st0{fill:none;stroke:#FFFFFF;stroke-width:8;stroke-miterlimit:10;}
	.st1{fill:none;stroke:#FFFFFF;stroke-width:5.6244;stroke-linecap:round;stroke-linejoin:round;stroke-miterlimit:10;}
	.st2{fill:none;stroke:#FFFFFF;stroke-width:3;stroke-linecap:round;stroke-linejoin:round;stroke-miterlimit:10;}
</style>
<ellipse style="display:inline;fill:none;stroke:#FFFFFF;stroke-width:8;stroke-miterlimit:10;" cx="200" cy="200" rx="195.5" ry="196.5"/>
<path style="display:inline;fill:none;stroke:#FFFFFF;stroke-width:5.6244;stroke-linecap:round;stroke-linejoin:round;stroke-miterlimit:10;" d="
	M263.3,275.2H92.5c-11.1,0-20.1-9-20.1-20.1V144.9c0-11.1,9-20.1,20.1-20.1h170.8c11.1,0,20.1,9,20.1,20.1v110.3
	C283.4,266.2,274.4,275.2,263.3,275.2z"/>
<polyline style="display:inline;fill:none;stroke:#FFFFFF;stroke-width:5.6244;stroke-linecap:round;stroke-linejoin:round;stroke-miterlimit:10;" points="
	190,232.8 173.5,207.9 156.9,183.1 140.4,207.9 123.8,232.8 "/>
<polyline style="display:inline;fill:none;stroke:#FFFFFF;stroke-width:5.6244;stroke-linecap:round;stroke-linejoin:round;stroke-miterlimit:10;" points="
	227.3,232.8 213.7,212.4 200.2,192 186.6,212.4 181.5,220 "/>
<circle style="display:inline;fill:none;stroke:#FFFFFF;stroke-width:5.6244;stroke-linecap:round;stroke-linejoin:round;stroke-miterlimit:10;" cx="221.8" cy="178" r="10.2"/>
<path style="display:inline;fill:none;stroke:#FFFFFF;stroke-width:3;stroke-linecap:round;stroke-linejoin:round;stroke-miterlimit:10;" d="
	M309.9,165.5c-1.1,2.3-2.1,4.6-3.2,6.9c-1.6,3.6-3.2,7.1-4.9,10.7c-0.7,1.5-0.9,2.6-0.9,4.3c0,1.8,0,3.5,0,5.3c0,2.9,0,5.8,0,8.6
	c0,3.5,0,7,0,10.5c0,3.8,0,7.6,0,11.4c0,3.9,0,7.9,0,11.8c0,3.8,0,7.7,0,11.5c0,3.4,0,6.7,0,10.1c0,2.6,0,5.1,0,7.7
	c0,1.8,0,3.6,0,5.4c0,2.4,1.5,5,4.2,5.2c2.2,0.2,4.4,0.2,6.7,0.2c2.9,0,8.8,0.6,8.8-3.9c0-1,0-2,0-3c0-2,0-4,0-6c0-3,0-6.1,0-9.1
	c0-3.6,0-7.2-0.1-10.8c0-3.9,0-7.8-0.1-11.7c0-3.9,0-7.9-0.1-11.8c0-3.7,0-7.5-0.1-11.2c0-3.3,0-6.6-0.1-9.8c0-2.4,0-4.8,0-7.3
	c0-1.4,0.1-2.9,0-4.3c-0.1-1.2-0.7-2.1-1.2-3.2c-0.8-1.6-1.7-3.2-2.5-4.8c-1.8-3.5-3.6-6.9-5.3-10.4
	C310.7,167.1,310.3,166.3,309.9,165.5z"/>
<line style="display:inline;fill:none;stroke:#FFFFFF;stroke-width:3;stroke-linecap:round;stroke-linejoin:round;stroke-miterlimit:10;" x1="300.9" y1="265.3" x2="320.4" y2="265.3"/>
<line style="display:inline;fill:none;stroke:#FFFFFF;stroke-width:3;stroke-linecap:round;stroke-linejoin:round;stroke-miterlimit:10;" x1="300.9" y1="260.1" x2="320.4" y2="260.1"/>
<line style="display:inline;fill:none;stroke:#FFFFFF;stroke-width:3;stroke-linecap:round;stroke-linejoin:round;stroke-miterlimit:10;" x1="301.2" y1="187.8" x2="319.7" y2="187.9"/>
<line style="display:inline;fill:none;stroke:#FFFFFF;stroke-width:3;stroke-linecap:round;stroke-linejoin:round;stroke-miterlimit:10;" x1="306.8" y1="172.2" x2="313.3" y2="172.2"/>
</svg>
