<?xml version="1.0" encoding="utf-8"?>
<!-- Generator: Adobe Illustrator 21.1.0, SVG Export Plug-In . SVG Version: 6.00 Build 0)  -->
<svg version="1.1" id="Produccion_Audiovisual" xmlns="http://www.w3.org/2000/svg" xmlns:xlink="http://www.w3.org/1999/xlink"
	 x="0px" y="0px" viewBox="0 0 400 400" style="enable-background:new 0 0 400 400;display:none;" xml:space="preserve">
<style type="text/css">
	.st0{fill:none;stroke:#FFFFFF;stroke-width:5.6244;stroke-linecap:round;stroke-linejoin:round;stroke-miterlimit:10;}
	.st1{fill:none;stroke:#FFFFFF;stroke-width:8;stroke-miterlimit:10;}
</style>
<g style="display:inline;">
	<path class="st0" d="M271.4,245.3H128.8c-4.7,0-8.5-3.8-8.5-8.5v-84.6c0-4.7,3.8-8.5,8.5-8.5h142.6c4.7,0,8.5,3.8,8.5,8.5v84.6
		C279.9,241.5,276.1,245.3,271.4,245.3z"/>
	<path class="st0" d="M281.7,168.2l44.6-18.6c4.7-1.9,9.8,1.5,9.8,6.5v67.1c0,5.2-5.4,8.6-10.1,6.4l-44.2-21.1"/>
	<path class="st0" d="M227.5,222.7h-54.8c-1.8,0-3.2-1.5-3.2-3.2v-32.5c0-1.8,1.5-3.2,3.2-3.2h54.8c1.8,0,3.2,1.5,3.2,3.2v32.5
		C230.7,221.2,229.3,222.7,227.5,222.7z"/>
	<g>
		<circle class="st0" cx="161.5" cy="103.4" r="39.4"/>
		<circle class="st0" cx="242.3" cy="103.4" r="39.4"/>
	</g>
	<g>
		<polyline class="st0" points="151.1,336 199.1,247.1 257.2,335.1 		"/>
		<path class="st0" d="M167.4,288.9"/>
	</g>
</g>
<ellipse style="display:inline;fill:none;stroke:#FFFFFF;stroke-width:8;stroke-miterlimit:10;" cx="200.2" cy="200" rx="195.5" ry="196.5"/>
</svg>
